<mxfile host="app.diagrams.net" modified="2021-06-24T15:12:42.810Z" agent="5.0 (X11; Linux x86_64) AppleWebKit/537.36 (KHTML, like Gecko) Chrome/91.0.4472.101 Safari/537.36" etag="sOhsd4rJz75mFPTiW04L" version="14.8.0" type="github" pages="2">
  <diagram id="gSiPfwgvA54Z1C3vehDS" name="Page-1">
    <mxGraphModel dx="2178" dy="746" grid="1" gridSize="10" guides="1" tooltips="1" connect="1" arrows="1" fold="1" page="1" pageScale="1" pageWidth="827" pageHeight="1169" math="0" shadow="0">
      <root>
        <mxCell id="0" />
        <mxCell id="1" parent="0" />
        <mxCell id="zYgc90g8Zmz4CVXkP-po-25" style="edgeStyle=orthogonalEdgeStyle;rounded=0;orthogonalLoop=1;jettySize=auto;html=1;entryX=0;entryY=0.5;entryDx=0;entryDy=0;" parent="1" source="79B8dK87wqLwpo8yn6WV-3" target="Ia5hEZytAEmgdlomByLA-23" edge="1">
          <mxGeometry relative="1" as="geometry" />
        </mxCell>
        <mxCell id="79B8dK87wqLwpo8yn6WV-3" value="&lt;font style=&quot;font-size: 10px;&quot;&gt;Start&lt;/font&gt;" style="rounded=1;whiteSpace=wrap;html=1;strokeWidth=2;fontSize=10;" parent="1" vertex="1">
          <mxGeometry x="10" y="300" width="120" height="60" as="geometry" />
        </mxCell>
        <mxCell id="Ia5hEZytAEmgdlomByLA-24" style="edgeStyle=orthogonalEdgeStyle;rounded=0;orthogonalLoop=1;jettySize=auto;html=1;entryX=0.5;entryY=0;entryDx=0;entryDy=0;" parent="1" source="79B8dK87wqLwpo8yn6WV-5" target="Ia5hEZytAEmgdlomByLA-23" edge="1">
          <mxGeometry relative="1" as="geometry">
            <Array as="points">
              <mxPoint x="260" y="420" />
              <mxPoint x="180" y="420" />
            </Array>
          </mxGeometry>
        </mxCell>
        <mxCell id="79B8dK87wqLwpo8yn6WV-5" value="Buildings OSM" style="shape=parallelogram;html=1;strokeWidth=2;perimeter=parallelogramPerimeter;whiteSpace=wrap;rounded=1;arcSize=12;size=0.23;strokeColor=#23445d;fillColor=#CADAE6;" parent="1" vertex="1">
          <mxGeometry x="190" y="300" width="140" height="70" as="geometry" />
        </mxCell>
        <mxCell id="Ia5hEZytAEmgdlomByLA-28" style="edgeStyle=orthogonalEdgeStyle;rounded=0;orthogonalLoop=1;jettySize=auto;html=1;" parent="1" source="79B8dK87wqLwpo8yn6WV-6" target="79B8dK87wqLwpo8yn6WV-12" edge="1">
          <mxGeometry relative="1" as="geometry">
            <Array as="points">
              <mxPoint x="560" y="440" />
              <mxPoint x="310" y="440" />
            </Array>
          </mxGeometry>
        </mxCell>
        <mxCell id="79B8dK87wqLwpo8yn6WV-6" value="&lt;font style=&quot;font-size: 12px&quot;&gt;Study Area&lt;/font&gt;" style="shape=parallelogram;html=1;strokeWidth=2;perimeter=parallelogramPerimeter;whiteSpace=wrap;rounded=1;arcSize=12;size=0.23;strokeColor=#23445d;fillColor=#CADAE6;" parent="1" vertex="1">
          <mxGeometry x="490" y="300" width="140" height="70" as="geometry" />
        </mxCell>
        <mxCell id="79B8dK87wqLwpo8yn6WV-23" style="edgeStyle=orthogonalEdgeStyle;rounded=0;orthogonalLoop=1;jettySize=auto;html=1;entryX=0;entryY=0.5;entryDx=0;entryDy=0;fontSize=10;" parent="1" source="79B8dK87wqLwpo8yn6WV-12" target="79B8dK87wqLwpo8yn6WV-13" edge="1">
          <mxGeometry relative="1" as="geometry" />
        </mxCell>
        <mxCell id="79B8dK87wqLwpo8yn6WV-12" value="Assign default buildings levels for study area if no building levels or height exists" style="rounded=1;whiteSpace=wrap;html=1;absoluteArcSize=1;arcSize=14;strokeWidth=2;fontSize=10;fillColor=#ffe6cc;strokeColor=#d79b00;" parent="1" vertex="1">
          <mxGeometry x="260" y="485" width="100" height="100" as="geometry" />
        </mxCell>
        <mxCell id="dN0qMM9BU-N8yEWdNGNO-8" style="edgeStyle=orthogonalEdgeStyle;rounded=0;orthogonalLoop=1;jettySize=auto;html=1;entryX=0;entryY=0.5;entryDx=0;entryDy=0;" parent="1" source="79B8dK87wqLwpo8yn6WV-13" target="79B8dK87wqLwpo8yn6WV-25" edge="1">
          <mxGeometry relative="1" as="geometry" />
        </mxCell>
        <mxCell id="79B8dK87wqLwpo8yn6WV-13" value="Pre-classify buildings based on building attribute" style="rounded=1;whiteSpace=wrap;html=1;absoluteArcSize=1;arcSize=14;strokeWidth=2;fontSize=10;fillColor=#ffe6cc;strokeColor=#d79b00;" parent="1" vertex="1">
          <mxGeometry x="390" y="485" width="100" height="100" as="geometry" />
        </mxCell>
        <mxCell id="dN0qMM9BU-N8yEWdNGNO-6" value="" style="edgeStyle=orthogonalEdgeStyle;rounded=0;orthogonalLoop=1;jettySize=auto;html=1;" parent="1" source="79B8dK87wqLwpo8yn6WV-18" target="79B8dK87wqLwpo8yn6WV-25" edge="1">
          <mxGeometry relative="1" as="geometry" />
        </mxCell>
        <mxCell id="79B8dK87wqLwpo8yn6WV-18" value="&lt;font style=&quot;font-size: 12px&quot;&gt;Custom Landuse 1&lt;/font&gt;" style="shape=parallelogram;html=1;strokeWidth=2;perimeter=parallelogramPerimeter;whiteSpace=wrap;rounded=1;arcSize=12;size=0.23;strokeColor=#9673a6;fillColor=#e1d5e7;" parent="1" vertex="1">
          <mxGeometry x="770" y="300" width="140" height="70" as="geometry" />
        </mxCell>
        <mxCell id="Ia5hEZytAEmgdlomByLA-5" style="edgeStyle=orthogonalEdgeStyle;rounded=0;orthogonalLoop=1;jettySize=auto;html=1;" parent="1" source="79B8dK87wqLwpo8yn6WV-24" target="79B8dK87wqLwpo8yn6WV-25" edge="1">
          <mxGeometry relative="1" as="geometry">
            <Array as="points">
              <mxPoint x="710" y="410" />
              <mxPoint x="840" y="410" />
            </Array>
          </mxGeometry>
        </mxCell>
        <mxCell id="79B8dK87wqLwpo8yn6WV-24" value="&lt;font&gt;&lt;font style=&quot;font-size: 12px&quot;&gt;Landuse OSM&lt;/font&gt;&lt;br&gt;&lt;/font&gt;" style="shape=parallelogram;html=1;strokeWidth=2;perimeter=parallelogramPerimeter;whiteSpace=wrap;rounded=1;arcSize=12;size=0.23;strokeColor=#23445d;fillColor=#CADAE6;" parent="1" vertex="1">
          <mxGeometry x="640" y="300" width="140" height="70" as="geometry" />
        </mxCell>
        <mxCell id="dN0qMM9BU-N8yEWdNGNO-9" value="" style="edgeStyle=orthogonalEdgeStyle;rounded=0;orthogonalLoop=1;jettySize=auto;html=1;" parent="1" source="79B8dK87wqLwpo8yn6WV-25" target="79B8dK87wqLwpo8yn6WV-40" edge="1">
          <mxGeometry relative="1" as="geometry" />
        </mxCell>
        <mxCell id="79B8dK87wqLwpo8yn6WV-25" value="Label buildings as not residential if lying on not residential landuse category" style="rounded=1;whiteSpace=wrap;html=1;absoluteArcSize=1;arcSize=14;strokeWidth=2;fontSize=10;fillColor=#ffe6cc;strokeColor=#d79b00;" parent="1" vertex="1">
          <mxGeometry x="790" y="485" width="100" height="100" as="geometry" />
        </mxCell>
        <mxCell id="Ia5hEZytAEmgdlomByLA-22" value="" style="edgeStyle=orthogonalEdgeStyle;rounded=0;orthogonalLoop=1;jettySize=auto;html=1;" parent="1" source="79B8dK87wqLwpo8yn6WV-40" target="79B8dK87wqLwpo8yn6WV-42" edge="1">
          <mxGeometry relative="1" as="geometry" />
        </mxCell>
        <mxCell id="79B8dK87wqLwpo8yn6WV-40" value="Label buildings with smaller a defined size as not residential" style="rounded=1;whiteSpace=wrap;html=1;absoluteArcSize=1;arcSize=14;strokeWidth=2;fontSize=10;fillColor=#ffe6cc;strokeColor=#d79b00;" parent="1" vertex="1">
          <mxGeometry x="790" y="655" width="100" height="100" as="geometry" />
        </mxCell>
        <mxCell id="zYgc90g8Zmz4CVXkP-po-23" value="" style="edgeStyle=orthogonalEdgeStyle;rounded=0;orthogonalLoop=1;jettySize=auto;html=1;" parent="1" source="79B8dK87wqLwpo8yn6WV-42" target="Ia5hEZytAEmgdlomByLA-44" edge="1">
          <mxGeometry relative="1" as="geometry" />
        </mxCell>
        <mxCell id="79B8dK87wqLwpo8yn6WV-42" value="Reduce residential building levels if intersection with POIs" style="rounded=1;whiteSpace=wrap;html=1;absoluteArcSize=1;arcSize=14;strokeWidth=2;fontSize=10;fillColor=#ffe6cc;strokeColor=#d79b00;" parent="1" vertex="1">
          <mxGeometry x="640" y="655" width="100" height="100" as="geometry" />
        </mxCell>
        <mxCell id="Ia5hEZytAEmgdlomByLA-26" style="edgeStyle=orthogonalEdgeStyle;rounded=0;orthogonalLoop=1;jettySize=auto;html=1;entryX=0.5;entryY=0;entryDx=0;entryDy=0;" parent="1" source="Ia5hEZytAEmgdlomByLA-1" target="Ia5hEZytAEmgdlomByLA-23" edge="1">
          <mxGeometry relative="1" as="geometry">
            <Array as="points">
              <mxPoint x="410" y="420" />
              <mxPoint x="180" y="420" />
            </Array>
          </mxGeometry>
        </mxCell>
        <mxCell id="Ia5hEZytAEmgdlomByLA-1" value="&lt;font style=&quot;font-size: 12px&quot;&gt;Buildings Custom&lt;/font&gt;" style="shape=parallelogram;html=1;strokeWidth=2;perimeter=parallelogramPerimeter;whiteSpace=wrap;rounded=1;arcSize=12;size=0.23;strokeColor=#9673a6;fillColor=#e1d5e7;" parent="1" vertex="1">
          <mxGeometry x="340" y="300" width="140" height="70" as="geometry" />
        </mxCell>
        <mxCell id="Ia5hEZytAEmgdlomByLA-27" value="" style="edgeStyle=orthogonalEdgeStyle;rounded=0;orthogonalLoop=1;jettySize=auto;html=1;" parent="1" source="Ia5hEZytAEmgdlomByLA-23" target="79B8dK87wqLwpo8yn6WV-12" edge="1">
          <mxGeometry relative="1" as="geometry" />
        </mxCell>
        <mxCell id="Ia5hEZytAEmgdlomByLA-23" value="Fusion OSM buildings and custom buildings" style="rounded=1;whiteSpace=wrap;html=1;absoluteArcSize=1;arcSize=14;strokeWidth=2;fontSize=10;fillColor=#ffe6cc;strokeColor=#d79b00;" parent="1" vertex="1">
          <mxGeometry x="130" y="485" width="100" height="100" as="geometry" />
        </mxCell>
        <mxCell id="Ia5hEZytAEmgdlomByLA-30" value="&lt;font style=&quot;font-size: 10px&quot;&gt;End&lt;/font&gt;" style="rounded=1;whiteSpace=wrap;html=1;strokeWidth=2;fontSize=10;" parent="1" vertex="1">
          <mxGeometry x="130" y="675" width="120" height="60" as="geometry" />
        </mxCell>
        <mxCell id="wJF8mjxWtDOm_poNGh10-41" value="" style="edgeStyle=orthogonalEdgeStyle;rounded=0;orthogonalLoop=1;jettySize=auto;html=1;" parent="1" source="Ia5hEZytAEmgdlomByLA-39" target="Ia5hEZytAEmgdlomByLA-43" edge="1">
          <mxGeometry relative="1" as="geometry" />
        </mxCell>
        <mxCell id="Ia5hEZytAEmgdlomByLA-39" value="&lt;font style=&quot;font-size: 10px&quot;&gt;Start&lt;/font&gt;" style="rounded=1;whiteSpace=wrap;html=1;strokeWidth=2;fontSize=10;" parent="1" vertex="1">
          <mxGeometry x="-70" y="999" width="120" height="60" as="geometry" />
        </mxCell>
        <mxCell id="zYgc90g8Zmz4CVXkP-po-4" style="edgeStyle=orthogonalEdgeStyle;rounded=0;orthogonalLoop=1;jettySize=auto;html=1;" parent="1" source="Ia5hEZytAEmgdlomByLA-40" target="Ia5hEZytAEmgdlomByLA-43" edge="1">
          <mxGeometry relative="1" as="geometry">
            <Array as="points">
              <mxPoint x="356" y="930" />
              <mxPoint x="196" y="930" />
            </Array>
          </mxGeometry>
        </mxCell>
        <mxCell id="Ia5hEZytAEmgdlomByLA-40" value="&lt;font&gt;&lt;font style=&quot;font-size: 12px&quot;&gt;Buildings&lt;/font&gt;&lt;br&gt;&lt;/font&gt;" style="shape=parallelogram;html=1;strokeWidth=2;perimeter=parallelogramPerimeter;whiteSpace=wrap;rounded=1;arcSize=12;size=0.23;strokeColor=#23445d;fillColor=#CADAE6;" parent="1" vertex="1">
          <mxGeometry x="296" y="810" width="140" height="70" as="geometry" />
        </mxCell>
        <mxCell id="Ia5hEZytAEmgdlomByLA-45" value="" style="edgeStyle=orthogonalEdgeStyle;rounded=0;orthogonalLoop=1;jettySize=auto;html=1;" parent="1" source="Ia5hEZytAEmgdlomByLA-42" target="Ia5hEZytAEmgdlomByLA-43" edge="1">
          <mxGeometry relative="1" as="geometry" />
        </mxCell>
        <mxCell id="Ia5hEZytAEmgdlomByLA-42" value="&lt;font&gt;&lt;font style=&quot;font-size: 12px&quot;&gt;Address&lt;br&gt;points &lt;br&gt;OSM&lt;/font&gt;&lt;br&gt;&lt;/font&gt;" style="shape=parallelogram;html=1;strokeWidth=2;perimeter=parallelogramPerimeter;whiteSpace=wrap;rounded=1;arcSize=12;size=0.23;strokeColor=#23445d;fillColor=#CADAE6;" parent="1" vertex="1">
          <mxGeometry x="126" y="810" width="140" height="70" as="geometry" />
        </mxCell>
        <mxCell id="zYgc90g8Zmz4CVXkP-po-5" value="" style="edgeStyle=orthogonalEdgeStyle;rounded=0;orthogonalLoop=1;jettySize=auto;html=1;" parent="1" source="Ia5hEZytAEmgdlomByLA-43" target="Ia5hEZytAEmgdlomByLA-47" edge="1">
          <mxGeometry relative="1" as="geometry" />
        </mxCell>
        <mxCell id="Ia5hEZytAEmgdlomByLA-43" value="Derive building entrances&amp;nbsp;" style="rounded=1;whiteSpace=wrap;html=1;absoluteArcSize=1;arcSize=14;strokeWidth=2;fontSize=10;fillColor=#ffe6cc;strokeColor=#d79b00;" parent="1" vertex="1">
          <mxGeometry x="146" y="979" width="100" height="100" as="geometry" />
        </mxCell>
        <mxCell id="zYgc90g8Zmz4CVXkP-po-22" value="" style="edgeStyle=orthogonalEdgeStyle;rounded=0;orthogonalLoop=1;jettySize=auto;html=1;" parent="1" source="Ia5hEZytAEmgdlomByLA-44" target="zYgc90g8Zmz4CVXkP-po-21" edge="1">
          <mxGeometry relative="1" as="geometry" />
        </mxCell>
        <mxCell id="Ia5hEZytAEmgdlomByLA-44" value="Compute residential gross floor area per building" style="rounded=1;whiteSpace=wrap;html=1;absoluteArcSize=1;arcSize=14;strokeWidth=2;fontSize=10;fillColor=#ffe6cc;strokeColor=#d79b00;" parent="1" vertex="1">
          <mxGeometry x="500" y="655" width="100" height="100" as="geometry" />
        </mxCell>
        <mxCell id="9iY5AjlihuMi9OCF5Ucr-62" value="" style="edgeStyle=orthogonalEdgeStyle;rounded=0;orthogonalLoop=1;jettySize=auto;html=1;" edge="1" parent="1" source="Ia5hEZytAEmgdlomByLA-47" target="zYgc90g8Zmz4CVXkP-po-9">
          <mxGeometry relative="1" as="geometry" />
        </mxCell>
        <mxCell id="Ia5hEZytAEmgdlomByLA-47" value="Distribute residential gross floor area to entrances" style="rounded=1;whiteSpace=wrap;html=1;absoluteArcSize=1;arcSize=14;strokeWidth=2;fontSize=10;fillColor=#ffe6cc;strokeColor=#d79b00;" parent="1" vertex="1">
          <mxGeometry x="306" y="979" width="100" height="100" as="geometry" />
        </mxCell>
        <mxCell id="zYgc90g8Zmz4CVXkP-po-10" value="" style="edgeStyle=orthogonalEdgeStyle;rounded=0;orthogonalLoop=1;jettySize=auto;html=1;" parent="1" source="Ia5hEZytAEmgdlomByLA-49" target="zYgc90g8Zmz4CVXkP-po-9" edge="1">
          <mxGeometry relative="1" as="geometry" />
        </mxCell>
        <mxCell id="Ia5hEZytAEmgdlomByLA-49" value="&lt;font&gt;&lt;font style=&quot;font-size: 12px&quot;&gt;Fixed population&lt;/font&gt;&lt;br&gt;&lt;/font&gt;" style="shape=parallelogram;html=1;strokeWidth=2;perimeter=parallelogramPerimeter;whiteSpace=wrap;rounded=1;arcSize=12;size=0.23;strokeColor=#9673a6;fillColor=#e1d5e7;" parent="1" vertex="1">
          <mxGeometry x="453" y="810" width="140" height="70" as="geometry" />
        </mxCell>
        <mxCell id="zYgc90g8Zmz4CVXkP-po-1" value="&lt;font style=&quot;font-size: 24px&quot;&gt;&lt;b&gt;Identify residential buildings&lt;/b&gt;&lt;/font&gt;" style="text;html=1;strokeColor=none;fillColor=none;align=center;verticalAlign=middle;whiteSpace=wrap;rounded=0;" parent="1" vertex="1">
          <mxGeometry x="310" y="90" width="700" height="20" as="geometry" />
        </mxCell>
        <mxCell id="9iY5AjlihuMi9OCF5Ucr-68" value="" style="edgeStyle=orthogonalEdgeStyle;rounded=0;orthogonalLoop=1;jettySize=auto;html=1;" edge="1" parent="1" source="zYgc90g8Zmz4CVXkP-po-6" target="9iY5AjlihuMi9OCF5Ucr-65">
          <mxGeometry relative="1" as="geometry" />
        </mxCell>
        <mxCell id="zYgc90g8Zmz4CVXkP-po-6" value="Compute residential gross floor area per census tract" style="rounded=1;whiteSpace=wrap;html=1;absoluteArcSize=1;arcSize=14;strokeWidth=2;fontSize=10;fillColor=#ffe6cc;strokeColor=#d79b00;" parent="1" vertex="1">
          <mxGeometry x="613" y="979" width="100" height="100" as="geometry" />
        </mxCell>
        <mxCell id="9iY5AjlihuMi9OCF5Ucr-67" value="" style="edgeStyle=orthogonalEdgeStyle;rounded=0;orthogonalLoop=1;jettySize=auto;html=1;" edge="1" parent="1" source="zYgc90g8Zmz4CVXkP-po-9" target="zYgc90g8Zmz4CVXkP-po-6">
          <mxGeometry relative="1" as="geometry" />
        </mxCell>
        <mxCell id="zYgc90g8Zmz4CVXkP-po-9" value="Inject fixed population points" style="rounded=1;whiteSpace=wrap;html=1;absoluteArcSize=1;arcSize=14;strokeWidth=2;fontSize=10;fillColor=#ffe6cc;strokeColor=#d79b00;" parent="1" vertex="1">
          <mxGeometry x="473" y="979" width="100" height="100" as="geometry" />
        </mxCell>
        <mxCell id="zYgc90g8Zmz4CVXkP-po-17" value="Limitations&lt;br&gt;- there is living a person in every residential building. There are no abonndened buildings&lt;br&gt;- new residents are first assigned to newly developed areas ==&amp;gt; densification might be disregarded&lt;br&gt;" style="text;html=1;strokeColor=none;fillColor=none;align=left;verticalAlign=middle;whiteSpace=wrap;rounded=0;" parent="1" vertex="1">
          <mxGeometry x="1530" y="320" width="180" height="190" as="geometry" />
        </mxCell>
        <mxCell id="2Fmk_maczDosi2yWpNws-46" value="" style="edgeStyle=orthogonalEdgeStyle;rounded=0;orthogonalLoop=1;jettySize=auto;html=1;" parent="1" source="zYgc90g8Zmz4CVXkP-po-21" target="Ia5hEZytAEmgdlomByLA-30" edge="1">
          <mxGeometry relative="1" as="geometry" />
        </mxCell>
        <mxCell id="zYgc90g8Zmz4CVXkP-po-21" value="&lt;font&gt;&lt;font style=&quot;font-size: 12px&quot;&gt;Buildings&lt;/font&gt;&lt;br&gt;&lt;/font&gt;" style="shape=parallelogram;html=1;strokeWidth=2;perimeter=parallelogramPerimeter;whiteSpace=wrap;rounded=1;arcSize=12;size=0.23;strokeColor=#23445d;fillColor=#CADAE6;" parent="1" vertex="1">
          <mxGeometry x="300" y="670" width="140" height="70" as="geometry" />
        </mxCell>
        <mxCell id="zYgc90g8Zmz4CVXkP-po-24" value="&lt;h1&gt;&lt;span&gt;Legend tables&lt;/span&gt;&lt;/h1&gt;&lt;h1 style=&quot;font-size: 13px&quot;&gt;&lt;font style=&quot;font-size: 13px&quot;&gt;buildings: &lt;span style=&quot;font-weight: normal&quot;&gt;Classified buildings in population yes/no&amp;nbsp;&lt;/span&gt;&lt;/font&gt;&lt;/h1&gt;&lt;h1 style=&quot;font-size: 13px&quot;&gt;buildings_custom:&lt;span style=&quot;font-weight: normal&quot;&gt; Building footprints provided by the user.&lt;/span&gt;&lt;/h1&gt;&lt;div style=&quot;font-size: 13px&quot;&gt;&lt;font style=&quot;font-size: 13px&quot;&gt;&lt;b&gt;census: &lt;/b&gt;Census tracts with number of population.&lt;/font&gt;&lt;/div&gt;&lt;div style=&quot;font-size: 13px&quot;&gt;&lt;font style=&quot;font-size: 13px&quot;&gt;&lt;br&gt;&lt;/font&gt;&lt;/div&gt;&lt;div style=&quot;font-size: 13px&quot;&gt;&lt;font style=&quot;font-size: 13px&quot;&gt;&lt;b&gt;census_new_dev: &lt;/b&gt;Census tracts that had no population at census count but have entrance to building with population now.&lt;/font&gt;&lt;/div&gt;&lt;div style=&quot;font-size: 13px&quot;&gt;&lt;font style=&quot;font-size: 13px&quot;&gt;&lt;b&gt;&lt;br&gt;&lt;/b&gt;&lt;/font&gt;&lt;/div&gt;&lt;div style=&quot;font-size: 13px&quot;&gt;&lt;b&gt;fixed_population: &lt;/b&gt;address points with pre-defined number of population&lt;/div&gt;&lt;div style=&quot;font-size: 13px&quot;&gt;&lt;font style=&quot;font-size: 13px&quot;&gt;&lt;b&gt;&lt;br&gt;&lt;/b&gt;&lt;/font&gt;&lt;/div&gt;&lt;div style=&quot;font-size: 13px&quot;&gt;&lt;font style=&quot;font-size: 13px&quot;&gt;&lt;b&gt;landuse: &lt;/b&gt;Landuse data provided by the user.&lt;/font&gt;&lt;/div&gt;&lt;div style=&quot;font-size: 13px&quot;&gt;&lt;span style=&quot;font-weight: normal&quot;&gt;&lt;font style=&quot;font-size: 13px&quot;&gt;&lt;br&gt;&lt;/font&gt;&lt;/span&gt;&lt;/div&gt;&lt;div style=&quot;font-size: 13px&quot;&gt;&lt;font style=&quot;font-size: 13px&quot;&gt;&lt;b&gt;landuse_additional:&lt;/b&gt; If several landuse files or classifications are existing the user can provide them.&lt;/font&gt;&lt;/div&gt;&lt;div style=&quot;font-size: 13px&quot;&gt;&lt;font style=&quot;font-size: 13px&quot;&gt;&lt;br&gt;&lt;/font&gt;&lt;/div&gt;&lt;div style=&quot;font-size: 13px&quot;&gt;&lt;font style=&quot;font-size: 13px&quot;&gt;&lt;b&gt;landuse_osm: &lt;/b&gt;All OSM data tagged with landuse.&amp;nbsp;&lt;/font&gt;&lt;/div&gt;&lt;h1 style=&quot;font-size: 13px&quot;&gt;&lt;font style=&quot;font-size: 13px&quot;&gt;planet_osm_polygon:&lt;span style=&quot;font-weight: normal&quot;&gt; All OSM data modelled as Polygon&lt;/span&gt;&lt;/font&gt;&lt;/h1&gt;&lt;div&gt;&lt;font style=&quot;font-size: 13px&quot;&gt;&lt;h1 style=&quot;font-size: 13px&quot;&gt;planet_osm_point:&lt;span style=&quot;font-weight: normal&quot;&gt;&amp;nbsp;All OSM data modelled as Point&lt;/span&gt;&lt;/h1&gt;&lt;div&gt;&lt;span style=&quot;font-weight: normal&quot;&gt;&lt;br&gt;&lt;/span&gt;&lt;/div&gt;&lt;div&gt;&lt;span style=&quot;font-weight: normal&quot;&gt;&lt;br&gt;&lt;/span&gt;&lt;/div&gt;&lt;/font&gt;&lt;/div&gt;&lt;div style=&quot;font-size: 13px&quot;&gt;&lt;span style=&quot;font-weight: normal&quot;&gt;&lt;font style=&quot;font-size: 13px&quot;&gt;&lt;br&gt;&lt;/font&gt;&lt;/span&gt;&lt;/div&gt;&lt;div style=&quot;font-size: 13px&quot;&gt;&lt;span style=&quot;font-weight: normal&quot;&gt;&lt;br&gt;&lt;/span&gt;&lt;/div&gt;&lt;div&gt;&lt;span style=&quot;font-weight: normal&quot;&gt;&lt;br&gt;&lt;/span&gt;&lt;/div&gt;&lt;div&gt;&lt;span style=&quot;font-weight: normal&quot;&gt;&lt;br&gt;&lt;/span&gt;&lt;/div&gt;&lt;div&gt;&lt;span style=&quot;font-weight: normal&quot;&gt;&lt;br&gt;&lt;/span&gt;&lt;/div&gt;" style="text;html=1;strokeColor=none;fillColor=none;spacing=5;spacingTop=-20;whiteSpace=wrap;overflow=hidden;rounded=0;" parent="1" vertex="1">
          <mxGeometry x="1300" y="40" width="190" height="480" as="geometry" />
        </mxCell>
        <mxCell id="2Fmk_maczDosi2yWpNws-30" style="edgeStyle=orthogonalEdgeStyle;rounded=0;orthogonalLoop=1;jettySize=auto;html=1;entryX=0;entryY=0.5;entryDx=0;entryDy=0;" parent="1" source="wJF8mjxWtDOm_poNGh10-19" target="wJF8mjxWtDOm_poNGh10-20" edge="1">
          <mxGeometry relative="1" as="geometry">
            <Array as="points">
              <mxPoint x="560" y="2050" />
              <mxPoint x="560" y="2100" />
            </Array>
          </mxGeometry>
        </mxCell>
        <mxCell id="2Fmk_maczDosi2yWpNws-45" value="" style="edgeStyle=orthogonalEdgeStyle;rounded=0;orthogonalLoop=1;jettySize=auto;html=1;entryX=0;entryY=0.5;entryDx=0;entryDy=0;" parent="1" source="wJF8mjxWtDOm_poNGh10-19" target="2Fmk_maczDosi2yWpNws-13" edge="1">
          <mxGeometry relative="1" as="geometry">
            <mxPoint x="590" y="1980" as="targetPoint" />
            <Array as="points">
              <mxPoint x="560" y="2050" />
              <mxPoint x="560" y="1980" />
            </Array>
          </mxGeometry>
        </mxCell>
        <mxCell id="wJF8mjxWtDOm_poNGh10-19" value="&lt;font style=&quot;font-size: 10px&quot;&gt;Table:&lt;br&gt;study_area&lt;br&gt;&lt;/font&gt;" style="shape=parallelogram;html=1;strokeWidth=2;perimeter=parallelogramPerimeter;whiteSpace=wrap;rounded=1;arcSize=12;size=0.23;strokeColor=#23445d;fillColor=#CADAE6;" parent="1" vertex="1">
          <mxGeometry x="400" y="2015" width="140" height="70" as="geometry" />
        </mxCell>
        <mxCell id="2Fmk_maczDosi2yWpNws-16" value="" style="edgeStyle=orthogonalEdgeStyle;rounded=0;orthogonalLoop=1;jettySize=auto;html=1;" parent="1" source="wJF8mjxWtDOm_poNGh10-20" target="2Fmk_maczDosi2yWpNws-12" edge="1">
          <mxGeometry relative="1" as="geometry" />
        </mxCell>
        <mxCell id="2Fmk_maczDosi2yWpNws-22" style="edgeStyle=orthogonalEdgeStyle;rounded=0;orthogonalLoop=1;jettySize=auto;html=1;entryX=0.5;entryY=1;entryDx=0;entryDy=0;entryPerimeter=0;" parent="1" source="wJF8mjxWtDOm_poNGh10-20" target="2Fmk_maczDosi2yWpNws-18" edge="1">
          <mxGeometry relative="1" as="geometry" />
        </mxCell>
        <mxCell id="wJF8mjxWtDOm_poNGh10-20" value="Define difference of&amp;nbsp; census population and study area population per study area" style="rounded=1;whiteSpace=wrap;html=1;absoluteArcSize=1;arcSize=14;strokeWidth=2;fontSize=10;fillColor=#ffe6cc;strokeColor=#d79b00;" parent="1" vertex="1">
          <mxGeometry x="597" y="2050" width="100" height="100" as="geometry" />
        </mxCell>
        <mxCell id="2Fmk_maczDosi2yWpNws-31" style="edgeStyle=orthogonalEdgeStyle;rounded=0;orthogonalLoop=1;jettySize=auto;html=1;entryX=0;entryY=0.5;entryDx=0;entryDy=0;" parent="1" source="wJF8mjxWtDOm_poNGh10-22" target="wJF8mjxWtDOm_poNGh10-20" edge="1">
          <mxGeometry relative="1" as="geometry">
            <Array as="points">
              <mxPoint x="560" y="2165" />
              <mxPoint x="560" y="2100" />
            </Array>
          </mxGeometry>
        </mxCell>
        <mxCell id="wJF8mjxWtDOm_poNGh10-22" value="&lt;font style=&quot;font-size: 10px&quot;&gt;Table:&lt;br&gt;census&lt;br&gt;&lt;/font&gt;" style="shape=parallelogram;html=1;strokeWidth=2;perimeter=parallelogramPerimeter;whiteSpace=wrap;rounded=1;arcSize=12;size=0.23;strokeColor=#23445d;fillColor=#CADAE6;" parent="1" vertex="1">
          <mxGeometry x="393" y="2110" width="140" height="70" as="geometry" />
        </mxCell>
        <mxCell id="wJF8mjxWtDOm_poNGh10-87" style="edgeStyle=orthogonalEdgeStyle;rounded=0;orthogonalLoop=1;jettySize=auto;html=1;entryX=0;entryY=0.5;entryDx=0;entryDy=0;entryPerimeter=0;" parent="1" source="wJF8mjxWtDOm_poNGh10-76" target="wJF8mjxWtDOm_poNGh10-77" edge="1">
          <mxGeometry relative="1" as="geometry" />
        </mxCell>
        <mxCell id="wJF8mjxWtDOm_poNGh10-76" value="&lt;font style=&quot;font-size: 10px&quot;&gt;Table:&lt;br&gt;census_new_dev&lt;br&gt;&lt;/font&gt;" style="shape=parallelogram;html=1;strokeWidth=2;perimeter=parallelogramPerimeter;whiteSpace=wrap;rounded=1;arcSize=12;size=0.23;strokeColor=#23445d;fillColor=#CADAE6;" parent="1" vertex="1">
          <mxGeometry x="40" y="1945" width="140" height="70" as="geometry" />
        </mxCell>
        <mxCell id="2Fmk_maczDosi2yWpNws-6" value="" style="edgeStyle=orthogonalEdgeStyle;rounded=0;orthogonalLoop=1;jettySize=auto;html=1;entryX=0;entryY=0.5;entryDx=0;entryDy=0;" parent="1" source="wJF8mjxWtDOm_poNGh10-77" target="2Fmk_maczDosi2yWpNws-13" edge="1">
          <mxGeometry relative="1" as="geometry">
            <mxPoint x="577" y="1980" as="targetPoint" />
          </mxGeometry>
        </mxCell>
        <mxCell id="2Fmk_maczDosi2yWpNws-23" style="edgeStyle=orthogonalEdgeStyle;rounded=0;orthogonalLoop=1;jettySize=auto;html=1;entryX=0.001;entryY=0.581;entryDx=0;entryDy=0;entryPerimeter=0;" parent="1" source="wJF8mjxWtDOm_poNGh10-77" target="2Fmk_maczDosi2yWpNws-12" edge="1">
          <mxGeometry relative="1" as="geometry">
            <Array as="points">
              <mxPoint x="297" y="2258" />
            </Array>
          </mxGeometry>
        </mxCell>
        <mxCell id="wJF8mjxWtDOm_poNGh10-77" value="Is census_new_dev in study area&amp;nbsp;" style="strokeWidth=2;html=1;shape=mxgraph.flowchart.decision;whiteSpace=wrap;rounded=1;fontSize=10;fillColor=#f8cecc;strokeColor=#b85450;" parent="1" vertex="1">
          <mxGeometry x="247" y="1930" width="100" height="100" as="geometry" />
        </mxCell>
        <mxCell id="wJF8mjxWtDOm_poNGh10-83" value="True" style="text;html=1;strokeColor=none;fillColor=none;align=center;verticalAlign=middle;whiteSpace=wrap;rounded=0;" parent="1" vertex="1">
          <mxGeometry x="443" y="1950" width="40" height="20" as="geometry" />
        </mxCell>
        <mxCell id="wJF8mjxWtDOm_poNGh10-85" value="False" style="text;html=1;strokeColor=none;fillColor=none;align=center;verticalAlign=middle;whiteSpace=wrap;rounded=0;" parent="1" vertex="1">
          <mxGeometry x="860" y="2070" width="40" height="20" as="geometry" />
        </mxCell>
        <mxCell id="2Fmk_maczDosi2yWpNws-37" value="" style="edgeStyle=orthogonalEdgeStyle;rounded=0;orthogonalLoop=1;jettySize=auto;html=1;" parent="1" source="2Fmk_maczDosi2yWpNws-12" target="2Fmk_maczDosi2yWpNws-36" edge="1">
          <mxGeometry relative="1" as="geometry" />
        </mxCell>
        <mxCell id="2Fmk_maczDosi2yWpNws-12" value="Distribute difference proportionally (on population) to the populated census tracts" style="rounded=1;whiteSpace=wrap;html=1;absoluteArcSize=1;arcSize=14;strokeWidth=2;fontSize=10;fillColor=#ffe6cc;strokeColor=#d79b00;" parent="1" vertex="1">
          <mxGeometry x="597" y="2200" width="100" height="100" as="geometry" />
        </mxCell>
        <mxCell id="2Fmk_maczDosi2yWpNws-19" value="" style="edgeStyle=orthogonalEdgeStyle;rounded=0;orthogonalLoop=1;jettySize=auto;html=1;" parent="1" source="2Fmk_maczDosi2yWpNws-13" target="2Fmk_maczDosi2yWpNws-18" edge="1">
          <mxGeometry relative="1" as="geometry" />
        </mxCell>
        <mxCell id="2Fmk_maczDosi2yWpNws-13" value="Population estimation for newly build buildings using average gross floor area per resident per study area" style="rounded=1;whiteSpace=wrap;html=1;absoluteArcSize=1;arcSize=14;strokeWidth=2;fontSize=10;fillColor=#ffe6cc;strokeColor=#d79b00;" parent="1" vertex="1">
          <mxGeometry x="597" y="1930" width="100" height="100" as="geometry" />
        </mxCell>
        <mxCell id="2Fmk_maczDosi2yWpNws-24" style="edgeStyle=orthogonalEdgeStyle;rounded=0;orthogonalLoop=1;jettySize=auto;html=1;entryX=0;entryY=0.5;entryDx=0;entryDy=0;" parent="1" source="2Fmk_maczDosi2yWpNws-18" target="2Fmk_maczDosi2yWpNws-20" edge="1">
          <mxGeometry relative="1" as="geometry" />
        </mxCell>
        <mxCell id="2Fmk_maczDosi2yWpNws-25" style="edgeStyle=orthogonalEdgeStyle;rounded=0;orthogonalLoop=1;jettySize=auto;html=1;entryX=0;entryY=0.5;entryDx=0;entryDy=0;" parent="1" source="2Fmk_maczDosi2yWpNws-18" target="2Fmk_maczDosi2yWpNws-21" edge="1">
          <mxGeometry relative="1" as="geometry" />
        </mxCell>
        <mxCell id="2Fmk_maczDosi2yWpNws-18" value="Sum of new population &amp;gt; difference" style="strokeWidth=2;html=1;shape=mxgraph.flowchart.decision;whiteSpace=wrap;rounded=1;fontSize=10;fillColor=#f8cecc;strokeColor=#b85450;" parent="1" vertex="1">
          <mxGeometry x="770" y="1930" width="100" height="100" as="geometry" />
        </mxCell>
        <mxCell id="2Fmk_maczDosi2yWpNws-40" value="" style="edgeStyle=orthogonalEdgeStyle;rounded=0;orthogonalLoop=1;jettySize=auto;html=1;" parent="1" source="2Fmk_maczDosi2yWpNws-20" edge="1">
          <mxGeometry relative="1" as="geometry">
            <mxPoint x="1130" y="1940" as="targetPoint" />
          </mxGeometry>
        </mxCell>
        <mxCell id="2Fmk_maczDosi2yWpNws-20" value="Substract difference proportionally (on population) from not updated census tracts" style="rounded=1;whiteSpace=wrap;html=1;absoluteArcSize=1;arcSize=14;strokeWidth=2;fontSize=10;fillColor=#ffe6cc;strokeColor=#d79b00;" parent="1" vertex="1">
          <mxGeometry x="937" y="1840" width="100" height="100" as="geometry" />
        </mxCell>
        <mxCell id="2Fmk_maczDosi2yWpNws-38" value="" style="edgeStyle=orthogonalEdgeStyle;rounded=0;orthogonalLoop=1;jettySize=auto;html=1;" parent="1" source="2Fmk_maczDosi2yWpNws-21" edge="1">
          <mxGeometry relative="1" as="geometry">
            <mxPoint x="1110" y="2150" as="targetPoint" />
          </mxGeometry>
        </mxCell>
        <mxCell id="2Fmk_maczDosi2yWpNws-21" value="Add difference proportionally (on population) to not updated census tracts" style="rounded=1;whiteSpace=wrap;html=1;absoluteArcSize=1;arcSize=14;strokeWidth=2;fontSize=10;fillColor=#ffe6cc;strokeColor=#d79b00;" parent="1" vertex="1">
          <mxGeometry x="937" y="2100" width="100" height="100" as="geometry" />
        </mxCell>
        <mxCell id="2Fmk_maczDosi2yWpNws-26" value="&lt;font style=&quot;font-size: 10px&quot;&gt;Table:&lt;br&gt;census&lt;br&gt;&lt;/font&gt;" style="shape=parallelogram;html=1;strokeWidth=2;perimeter=parallelogramPerimeter;whiteSpace=wrap;rounded=1;arcSize=12;size=0.23;strokeColor=#23445d;fillColor=#CADAE6;" parent="1" vertex="1">
          <mxGeometry x="1241" y="1590" width="137" height="70" as="geometry" />
        </mxCell>
        <mxCell id="2Fmk_maczDosi2yWpNws-32" value="True" style="text;html=1;strokeColor=none;fillColor=none;align=center;verticalAlign=middle;whiteSpace=wrap;rounded=0;" parent="1" vertex="1">
          <mxGeometry x="860" y="1920" width="40" height="20" as="geometry" />
        </mxCell>
        <mxCell id="2Fmk_maczDosi2yWpNws-36" value="&lt;font style=&quot;font-size: 10px&quot;&gt;End&lt;/font&gt;" style="rounded=1;whiteSpace=wrap;html=1;strokeWidth=2;fontSize=10;" parent="1" vertex="1">
          <mxGeometry x="740" y="2220" width="120" height="60" as="geometry" />
        </mxCell>
        <mxCell id="2Fmk_maczDosi2yWpNws-41" value="False" style="text;html=1;strokeColor=none;fillColor=none;align=center;verticalAlign=middle;whiteSpace=wrap;rounded=0;" parent="1" vertex="1">
          <mxGeometry x="247" y="2110" width="40" height="20" as="geometry" />
        </mxCell>
        <mxCell id="2Fmk_maczDosi2yWpNws-44" value="" style="edgeStyle=orthogonalEdgeStyle;rounded=0;orthogonalLoop=1;jettySize=auto;html=1;" parent="1" source="2Fmk_maczDosi2yWpNws-43" target="wJF8mjxWtDOm_poNGh10-77" edge="1">
          <mxGeometry relative="1" as="geometry" />
        </mxCell>
        <mxCell id="2Fmk_maczDosi2yWpNws-43" value="&lt;font style=&quot;font-size: 10px&quot;&gt;Start&lt;/font&gt;" style="rounded=1;whiteSpace=wrap;html=1;strokeWidth=2;fontSize=10;" parent="1" vertex="1">
          <mxGeometry x="237" y="1830" width="120" height="60" as="geometry" />
        </mxCell>
        <mxCell id="dN0qMM9BU-N8yEWdNGNO-7" style="edgeStyle=orthogonalEdgeStyle;rounded=0;orthogonalLoop=1;jettySize=auto;html=1;entryX=0.5;entryY=0;entryDx=0;entryDy=0;" parent="1" source="dN0qMM9BU-N8yEWdNGNO-5" target="79B8dK87wqLwpo8yn6WV-25" edge="1">
          <mxGeometry relative="1" as="geometry">
            <Array as="points">
              <mxPoint x="970" y="410" />
              <mxPoint x="840" y="410" />
            </Array>
          </mxGeometry>
        </mxCell>
        <mxCell id="dN0qMM9BU-N8yEWdNGNO-5" value="&lt;font style=&quot;font-size: 11px&quot;&gt;&lt;span style=&quot;font-size: 12px&quot;&gt;Custom Landuse 2&lt;/span&gt;&lt;br&gt;&lt;/font&gt;" style="shape=parallelogram;html=1;strokeWidth=2;perimeter=parallelogramPerimeter;whiteSpace=wrap;rounded=1;arcSize=12;size=0.23;strokeColor=#9673a6;fillColor=#e1d5e7;" parent="1" vertex="1">
          <mxGeometry x="900" y="300" width="140" height="70" as="geometry" />
        </mxCell>
        <mxCell id="kg2WgKKPB-7db6LxPs3S-1" value="Include height information" style="text;html=1;strokeColor=none;fillColor=none;align=center;verticalAlign=middle;whiteSpace=wrap;rounded=0;" parent="1" vertex="1">
          <mxGeometry x="1170" y="405" width="130" height="20" as="geometry" />
        </mxCell>
        <mxCell id="kg2WgKKPB-7db6LxPs3S-2" value="Buttom up population generation: 1000 m2/50m2 per person" style="text;html=1;strokeColor=none;fillColor=none;align=center;verticalAlign=middle;whiteSpace=wrap;rounded=0;" parent="1" vertex="1">
          <mxGeometry x="613" y="1870" width="40" height="20" as="geometry" />
        </mxCell>
        <mxCell id="9iY5AjlihuMi9OCF5Ucr-1" value="Buildings OSM" style="shape=table;startSize=50;container=1;collapsible=0;childLayout=tableLayout;fixedRows=1;rowLines=0;fontStyle=1;align=center;" vertex="1" parent="1">
          <mxGeometry x="1260" y="580" width="220" height="250" as="geometry" />
        </mxCell>
        <mxCell id="9iY5AjlihuMi9OCF5Ucr-2" value="" style="shape=partialRectangle;html=1;whiteSpace=wrap;collapsible=0;dropTarget=0;pointerEvents=0;fillColor=none;top=0;left=0;bottom=1;right=0;points=[[0,0.5],[1,0.5]];portConstraint=eastwest;" vertex="1" parent="9iY5AjlihuMi9OCF5Ucr-1">
          <mxGeometry y="50" width="220" height="40" as="geometry" />
        </mxCell>
        <mxCell id="9iY5AjlihuMi9OCF5Ucr-3" value="PK" style="shape=partialRectangle;html=1;whiteSpace=wrap;connectable=0;fillColor=none;top=0;left=0;bottom=0;right=0;overflow=hidden;" vertex="1" parent="9iY5AjlihuMi9OCF5Ucr-2">
          <mxGeometry width="50" height="40" as="geometry" />
        </mxCell>
        <mxCell id="9iY5AjlihuMi9OCF5Ucr-4" value="gid&lt;span style=&quot;white-space: pre&quot;&gt;	&lt;/span&gt;&lt;span style=&quot;white-space: pre&quot;&gt;	&lt;span style=&quot;white-space: pre&quot;&gt;	&lt;span style=&quot;white-space: pre&quot;&gt;	&lt;/span&gt;&lt;/span&gt;&lt;/span&gt;integer" style="shape=partialRectangle;html=1;whiteSpace=wrap;connectable=0;fillColor=none;top=0;left=0;bottom=0;right=0;align=left;spacingLeft=6;overflow=hidden;" vertex="1" parent="9iY5AjlihuMi9OCF5Ucr-2">
          <mxGeometry x="50" width="170" height="40" as="geometry" />
        </mxCell>
        <mxCell id="9iY5AjlihuMi9OCF5Ucr-5" value="" style="shape=partialRectangle;html=1;whiteSpace=wrap;collapsible=0;dropTarget=0;pointerEvents=0;fillColor=none;top=0;left=0;bottom=0;right=0;points=[[0,0.5],[1,0.5]];portConstraint=eastwest;" vertex="1" parent="9iY5AjlihuMi9OCF5Ucr-1">
          <mxGeometry y="90" width="220" height="30" as="geometry" />
        </mxCell>
        <mxCell id="9iY5AjlihuMi9OCF5Ucr-6" value="not null" style="shape=partialRectangle;html=1;whiteSpace=wrap;connectable=0;fillColor=none;top=0;left=0;bottom=0;right=0;overflow=hidden;" vertex="1" parent="9iY5AjlihuMi9OCF5Ucr-5">
          <mxGeometry width="50" height="30" as="geometry" />
        </mxCell>
        <mxCell id="9iY5AjlihuMi9OCF5Ucr-7" value="osm_id&lt;span style=&quot;white-space: pre&quot;&gt;	&lt;span style=&quot;white-space: pre&quot;&gt;	&lt;span style=&quot;white-space: pre&quot;&gt;	&lt;/span&gt;&lt;/span&gt;&lt;/span&gt;bigint" style="shape=partialRectangle;html=1;whiteSpace=wrap;connectable=0;fillColor=none;top=0;left=0;bottom=0;right=0;align=left;spacingLeft=6;overflow=hidden;" vertex="1" parent="9iY5AjlihuMi9OCF5Ucr-5">
          <mxGeometry x="50" width="170" height="30" as="geometry" />
        </mxCell>
        <mxCell id="9iY5AjlihuMi9OCF5Ucr-8" value="" style="shape=partialRectangle;html=1;whiteSpace=wrap;collapsible=0;dropTarget=0;pointerEvents=0;fillColor=none;top=0;left=0;bottom=0;right=0;points=[[0,0.5],[1,0.5]];portConstraint=eastwest;" vertex="1" parent="9iY5AjlihuMi9OCF5Ucr-1">
          <mxGeometry y="120" width="220" height="30" as="geometry" />
        </mxCell>
        <mxCell id="9iY5AjlihuMi9OCF5Ucr-9" value="" style="shape=partialRectangle;html=1;whiteSpace=wrap;connectable=0;fillColor=none;top=0;left=0;bottom=0;right=0;overflow=hidden;" vertex="1" parent="9iY5AjlihuMi9OCF5Ucr-8">
          <mxGeometry width="50" height="30" as="geometry" />
        </mxCell>
        <mxCell id="9iY5AjlihuMi9OCF5Ucr-10" value="building&lt;span style=&quot;white-space: pre&quot;&gt;	&lt;span style=&quot;white-space: pre&quot;&gt;	&lt;span style=&quot;white-space: pre&quot;&gt;	&lt;/span&gt;&lt;/span&gt;&lt;/span&gt;text&lt;span style=&quot;white-space: pre&quot;&gt;	&lt;/span&gt;" style="shape=partialRectangle;html=1;whiteSpace=wrap;connectable=0;fillColor=none;top=0;left=0;bottom=0;right=0;align=left;spacingLeft=6;overflow=hidden;" vertex="1" parent="9iY5AjlihuMi9OCF5Ucr-8">
          <mxGeometry x="50" width="170" height="30" as="geometry" />
        </mxCell>
        <mxCell id="9iY5AjlihuMi9OCF5Ucr-101" value="" style="shape=partialRectangle;html=1;whiteSpace=wrap;collapsible=0;dropTarget=0;pointerEvents=0;fillColor=none;top=0;left=0;bottom=0;right=0;points=[[0,0.5],[1,0.5]];portConstraint=eastwest;" vertex="1" parent="9iY5AjlihuMi9OCF5Ucr-1">
          <mxGeometry y="150" width="220" height="30" as="geometry" />
        </mxCell>
        <mxCell id="9iY5AjlihuMi9OCF5Ucr-102" value="" style="shape=partialRectangle;html=1;whiteSpace=wrap;connectable=0;fillColor=none;top=0;left=0;bottom=0;right=0;overflow=hidden;" vertex="1" parent="9iY5AjlihuMi9OCF5Ucr-101">
          <mxGeometry width="50" height="30" as="geometry" />
        </mxCell>
        <mxCell id="9iY5AjlihuMi9OCF5Ucr-103" value="amenity&lt;span style=&quot;white-space: pre&quot;&gt;	&lt;span style=&quot;white-space: pre&quot;&gt;	&lt;/span&gt;&lt;span style=&quot;white-space: pre&quot;&gt;	&lt;/span&gt;&lt;/span&gt;text" style="shape=partialRectangle;html=1;whiteSpace=wrap;connectable=0;fillColor=none;top=0;left=0;bottom=0;right=0;align=left;spacingLeft=6;overflow=hidden;" vertex="1" parent="9iY5AjlihuMi9OCF5Ucr-101">
          <mxGeometry x="50" width="170" height="30" as="geometry" />
        </mxCell>
        <mxCell id="9iY5AjlihuMi9OCF5Ucr-104" value="" style="shape=partialRectangle;html=1;whiteSpace=wrap;collapsible=0;dropTarget=0;pointerEvents=0;fillColor=none;top=0;left=0;bottom=0;right=0;points=[[0,0.5],[1,0.5]];portConstraint=eastwest;" vertex="1" parent="9iY5AjlihuMi9OCF5Ucr-1">
          <mxGeometry y="180" width="220" height="30" as="geometry" />
        </mxCell>
        <mxCell id="9iY5AjlihuMi9OCF5Ucr-105" value="" style="shape=partialRectangle;html=1;whiteSpace=wrap;connectable=0;fillColor=none;top=0;left=0;bottom=0;right=0;overflow=hidden;" vertex="1" parent="9iY5AjlihuMi9OCF5Ucr-104">
          <mxGeometry width="50" height="30" as="geometry" />
        </mxCell>
        <mxCell id="9iY5AjlihuMi9OCF5Ucr-106" value="building_levels &lt;span style=&quot;white-space: pre&quot;&gt;	&lt;/span&gt;smallint" style="shape=partialRectangle;html=1;whiteSpace=wrap;connectable=0;fillColor=none;top=0;left=0;bottom=0;right=0;align=left;spacingLeft=6;overflow=hidden;" vertex="1" parent="9iY5AjlihuMi9OCF5Ucr-104">
          <mxGeometry x="50" width="170" height="30" as="geometry" />
        </mxCell>
        <mxCell id="9iY5AjlihuMi9OCF5Ucr-21" value="Study Area" style="shape=table;startSize=30;container=1;collapsible=0;childLayout=tableLayout;fixedRows=1;rowLines=0;fontStyle=1;align=center;" vertex="1" parent="1">
          <mxGeometry x="1290" y="956" width="180" height="150" as="geometry" />
        </mxCell>
        <mxCell id="9iY5AjlihuMi9OCF5Ucr-22" value="" style="shape=partialRectangle;html=1;whiteSpace=wrap;collapsible=0;dropTarget=0;pointerEvents=0;fillColor=none;top=0;left=0;bottom=1;right=0;points=[[0,0.5],[1,0.5]];portConstraint=eastwest;" vertex="1" parent="9iY5AjlihuMi9OCF5Ucr-21">
          <mxGeometry y="30" width="180" height="30" as="geometry" />
        </mxCell>
        <mxCell id="9iY5AjlihuMi9OCF5Ucr-23" value="1" style="shape=partialRectangle;html=1;whiteSpace=wrap;connectable=0;fillColor=none;top=0;left=0;bottom=0;right=0;overflow=hidden;" vertex="1" parent="9iY5AjlihuMi9OCF5Ucr-22">
          <mxGeometry width="40" height="30" as="geometry" />
        </mxCell>
        <mxCell id="9iY5AjlihuMi9OCF5Ucr-24" value="Value 1" style="shape=partialRectangle;html=1;whiteSpace=wrap;connectable=0;fillColor=none;top=0;left=0;bottom=0;right=0;align=left;spacingLeft=6;overflow=hidden;" vertex="1" parent="9iY5AjlihuMi9OCF5Ucr-22">
          <mxGeometry x="40" width="140" height="30" as="geometry" />
        </mxCell>
        <mxCell id="9iY5AjlihuMi9OCF5Ucr-25" value="" style="shape=partialRectangle;html=1;whiteSpace=wrap;collapsible=0;dropTarget=0;pointerEvents=0;fillColor=none;top=0;left=0;bottom=0;right=0;points=[[0,0.5],[1,0.5]];portConstraint=eastwest;" vertex="1" parent="9iY5AjlihuMi9OCF5Ucr-21">
          <mxGeometry y="60" width="180" height="30" as="geometry" />
        </mxCell>
        <mxCell id="9iY5AjlihuMi9OCF5Ucr-26" value="2" style="shape=partialRectangle;html=1;whiteSpace=wrap;connectable=0;fillColor=none;top=0;left=0;bottom=0;right=0;overflow=hidden;" vertex="1" parent="9iY5AjlihuMi9OCF5Ucr-25">
          <mxGeometry width="40" height="30" as="geometry" />
        </mxCell>
        <mxCell id="9iY5AjlihuMi9OCF5Ucr-27" value="Value 2" style="shape=partialRectangle;html=1;whiteSpace=wrap;connectable=0;fillColor=none;top=0;left=0;bottom=0;right=0;align=left;spacingLeft=6;overflow=hidden;" vertex="1" parent="9iY5AjlihuMi9OCF5Ucr-25">
          <mxGeometry x="40" width="140" height="30" as="geometry" />
        </mxCell>
        <mxCell id="9iY5AjlihuMi9OCF5Ucr-28" value="" style="shape=partialRectangle;html=1;whiteSpace=wrap;collapsible=0;dropTarget=0;pointerEvents=0;fillColor=none;top=0;left=0;bottom=0;right=0;points=[[0,0.5],[1,0.5]];portConstraint=eastwest;" vertex="1" parent="9iY5AjlihuMi9OCF5Ucr-21">
          <mxGeometry y="90" width="180" height="30" as="geometry" />
        </mxCell>
        <mxCell id="9iY5AjlihuMi9OCF5Ucr-29" value="3" style="shape=partialRectangle;html=1;whiteSpace=wrap;connectable=0;fillColor=none;top=0;left=0;bottom=0;right=0;overflow=hidden;" vertex="1" parent="9iY5AjlihuMi9OCF5Ucr-28">
          <mxGeometry width="40" height="30" as="geometry" />
        </mxCell>
        <mxCell id="9iY5AjlihuMi9OCF5Ucr-30" value="Value 3" style="shape=partialRectangle;html=1;whiteSpace=wrap;connectable=0;fillColor=none;top=0;left=0;bottom=0;right=0;align=left;spacingLeft=6;overflow=hidden;" vertex="1" parent="9iY5AjlihuMi9OCF5Ucr-28">
          <mxGeometry x="40" width="140" height="30" as="geometry" />
        </mxCell>
        <mxCell id="9iY5AjlihuMi9OCF5Ucr-31" value="Landuse OSM" style="shape=table;startSize=30;container=1;collapsible=0;childLayout=tableLayout;fixedRows=1;rowLines=0;fontStyle=1;align=center;" vertex="1" parent="1">
          <mxGeometry x="1510" y="956" width="180" height="150" as="geometry" />
        </mxCell>
        <mxCell id="9iY5AjlihuMi9OCF5Ucr-32" value="" style="shape=partialRectangle;html=1;whiteSpace=wrap;collapsible=0;dropTarget=0;pointerEvents=0;fillColor=none;top=0;left=0;bottom=1;right=0;points=[[0,0.5],[1,0.5]];portConstraint=eastwest;" vertex="1" parent="9iY5AjlihuMi9OCF5Ucr-31">
          <mxGeometry y="30" width="180" height="30" as="geometry" />
        </mxCell>
        <mxCell id="9iY5AjlihuMi9OCF5Ucr-33" value="1" style="shape=partialRectangle;html=1;whiteSpace=wrap;connectable=0;fillColor=none;top=0;left=0;bottom=0;right=0;overflow=hidden;" vertex="1" parent="9iY5AjlihuMi9OCF5Ucr-32">
          <mxGeometry width="40" height="30" as="geometry" />
        </mxCell>
        <mxCell id="9iY5AjlihuMi9OCF5Ucr-34" value="Value 1" style="shape=partialRectangle;html=1;whiteSpace=wrap;connectable=0;fillColor=none;top=0;left=0;bottom=0;right=0;align=left;spacingLeft=6;overflow=hidden;" vertex="1" parent="9iY5AjlihuMi9OCF5Ucr-32">
          <mxGeometry x="40" width="140" height="30" as="geometry" />
        </mxCell>
        <mxCell id="9iY5AjlihuMi9OCF5Ucr-35" value="" style="shape=partialRectangle;html=1;whiteSpace=wrap;collapsible=0;dropTarget=0;pointerEvents=0;fillColor=none;top=0;left=0;bottom=0;right=0;points=[[0,0.5],[1,0.5]];portConstraint=eastwest;" vertex="1" parent="9iY5AjlihuMi9OCF5Ucr-31">
          <mxGeometry y="60" width="180" height="30" as="geometry" />
        </mxCell>
        <mxCell id="9iY5AjlihuMi9OCF5Ucr-36" value="2" style="shape=partialRectangle;html=1;whiteSpace=wrap;connectable=0;fillColor=none;top=0;left=0;bottom=0;right=0;overflow=hidden;" vertex="1" parent="9iY5AjlihuMi9OCF5Ucr-35">
          <mxGeometry width="40" height="30" as="geometry" />
        </mxCell>
        <mxCell id="9iY5AjlihuMi9OCF5Ucr-37" value="Value 2" style="shape=partialRectangle;html=1;whiteSpace=wrap;connectable=0;fillColor=none;top=0;left=0;bottom=0;right=0;align=left;spacingLeft=6;overflow=hidden;" vertex="1" parent="9iY5AjlihuMi9OCF5Ucr-35">
          <mxGeometry x="40" width="140" height="30" as="geometry" />
        </mxCell>
        <mxCell id="9iY5AjlihuMi9OCF5Ucr-38" value="" style="shape=partialRectangle;html=1;whiteSpace=wrap;collapsible=0;dropTarget=0;pointerEvents=0;fillColor=none;top=0;left=0;bottom=0;right=0;points=[[0,0.5],[1,0.5]];portConstraint=eastwest;" vertex="1" parent="9iY5AjlihuMi9OCF5Ucr-31">
          <mxGeometry y="90" width="180" height="30" as="geometry" />
        </mxCell>
        <mxCell id="9iY5AjlihuMi9OCF5Ucr-39" value="3" style="shape=partialRectangle;html=1;whiteSpace=wrap;connectable=0;fillColor=none;top=0;left=0;bottom=0;right=0;overflow=hidden;" vertex="1" parent="9iY5AjlihuMi9OCF5Ucr-38">
          <mxGeometry width="40" height="30" as="geometry" />
        </mxCell>
        <mxCell id="9iY5AjlihuMi9OCF5Ucr-40" value="Value 3" style="shape=partialRectangle;html=1;whiteSpace=wrap;connectable=0;fillColor=none;top=0;left=0;bottom=0;right=0;align=left;spacingLeft=6;overflow=hidden;" vertex="1" parent="9iY5AjlihuMi9OCF5Ucr-38">
          <mxGeometry x="40" width="140" height="30" as="geometry" />
        </mxCell>
        <mxCell id="9iY5AjlihuMi9OCF5Ucr-41" value="Custom Landuse 1" style="shape=table;startSize=30;container=1;collapsible=0;childLayout=tableLayout;fixedRows=1;rowLines=0;fontStyle=1;align=center;" vertex="1" parent="1">
          <mxGeometry x="1290" y="1145" width="180" height="150" as="geometry" />
        </mxCell>
        <mxCell id="9iY5AjlihuMi9OCF5Ucr-42" value="" style="shape=partialRectangle;html=1;whiteSpace=wrap;collapsible=0;dropTarget=0;pointerEvents=0;fillColor=none;top=0;left=0;bottom=1;right=0;points=[[0,0.5],[1,0.5]];portConstraint=eastwest;" vertex="1" parent="9iY5AjlihuMi9OCF5Ucr-41">
          <mxGeometry y="30" width="180" height="30" as="geometry" />
        </mxCell>
        <mxCell id="9iY5AjlihuMi9OCF5Ucr-43" value="1" style="shape=partialRectangle;html=1;whiteSpace=wrap;connectable=0;fillColor=none;top=0;left=0;bottom=0;right=0;overflow=hidden;" vertex="1" parent="9iY5AjlihuMi9OCF5Ucr-42">
          <mxGeometry width="40" height="30" as="geometry" />
        </mxCell>
        <mxCell id="9iY5AjlihuMi9OCF5Ucr-44" value="Value 1" style="shape=partialRectangle;html=1;whiteSpace=wrap;connectable=0;fillColor=none;top=0;left=0;bottom=0;right=0;align=left;spacingLeft=6;overflow=hidden;" vertex="1" parent="9iY5AjlihuMi9OCF5Ucr-42">
          <mxGeometry x="40" width="140" height="30" as="geometry" />
        </mxCell>
        <mxCell id="9iY5AjlihuMi9OCF5Ucr-45" value="" style="shape=partialRectangle;html=1;whiteSpace=wrap;collapsible=0;dropTarget=0;pointerEvents=0;fillColor=none;top=0;left=0;bottom=0;right=0;points=[[0,0.5],[1,0.5]];portConstraint=eastwest;" vertex="1" parent="9iY5AjlihuMi9OCF5Ucr-41">
          <mxGeometry y="60" width="180" height="30" as="geometry" />
        </mxCell>
        <mxCell id="9iY5AjlihuMi9OCF5Ucr-46" value="2" style="shape=partialRectangle;html=1;whiteSpace=wrap;connectable=0;fillColor=none;top=0;left=0;bottom=0;right=0;overflow=hidden;" vertex="1" parent="9iY5AjlihuMi9OCF5Ucr-45">
          <mxGeometry width="40" height="30" as="geometry" />
        </mxCell>
        <mxCell id="9iY5AjlihuMi9OCF5Ucr-47" value="Value 2" style="shape=partialRectangle;html=1;whiteSpace=wrap;connectable=0;fillColor=none;top=0;left=0;bottom=0;right=0;align=left;spacingLeft=6;overflow=hidden;" vertex="1" parent="9iY5AjlihuMi9OCF5Ucr-45">
          <mxGeometry x="40" width="140" height="30" as="geometry" />
        </mxCell>
        <mxCell id="9iY5AjlihuMi9OCF5Ucr-48" value="" style="shape=partialRectangle;html=1;whiteSpace=wrap;collapsible=0;dropTarget=0;pointerEvents=0;fillColor=none;top=0;left=0;bottom=0;right=0;points=[[0,0.5],[1,0.5]];portConstraint=eastwest;" vertex="1" parent="9iY5AjlihuMi9OCF5Ucr-41">
          <mxGeometry y="90" width="180" height="30" as="geometry" />
        </mxCell>
        <mxCell id="9iY5AjlihuMi9OCF5Ucr-49" value="3" style="shape=partialRectangle;html=1;whiteSpace=wrap;connectable=0;fillColor=none;top=0;left=0;bottom=0;right=0;overflow=hidden;" vertex="1" parent="9iY5AjlihuMi9OCF5Ucr-48">
          <mxGeometry width="40" height="30" as="geometry" />
        </mxCell>
        <mxCell id="9iY5AjlihuMi9OCF5Ucr-50" value="Value 3" style="shape=partialRectangle;html=1;whiteSpace=wrap;connectable=0;fillColor=none;top=0;left=0;bottom=0;right=0;align=left;spacingLeft=6;overflow=hidden;" vertex="1" parent="9iY5AjlihuMi9OCF5Ucr-48">
          <mxGeometry x="40" width="140" height="30" as="geometry" />
        </mxCell>
        <mxCell id="9iY5AjlihuMi9OCF5Ucr-51" value="Custom Landuse 2" style="shape=table;startSize=30;container=1;collapsible=0;childLayout=tableLayout;fixedRows=1;rowLines=0;fontStyle=1;align=center;" vertex="1" parent="1">
          <mxGeometry x="1510" y="1145" width="180" height="150" as="geometry" />
        </mxCell>
        <mxCell id="9iY5AjlihuMi9OCF5Ucr-52" value="" style="shape=partialRectangle;html=1;whiteSpace=wrap;collapsible=0;dropTarget=0;pointerEvents=0;fillColor=none;top=0;left=0;bottom=1;right=0;points=[[0,0.5],[1,0.5]];portConstraint=eastwest;" vertex="1" parent="9iY5AjlihuMi9OCF5Ucr-51">
          <mxGeometry y="30" width="180" height="30" as="geometry" />
        </mxCell>
        <mxCell id="9iY5AjlihuMi9OCF5Ucr-53" value="1" style="shape=partialRectangle;html=1;whiteSpace=wrap;connectable=0;fillColor=none;top=0;left=0;bottom=0;right=0;overflow=hidden;" vertex="1" parent="9iY5AjlihuMi9OCF5Ucr-52">
          <mxGeometry width="40" height="30" as="geometry" />
        </mxCell>
        <mxCell id="9iY5AjlihuMi9OCF5Ucr-54" value="Value 1" style="shape=partialRectangle;html=1;whiteSpace=wrap;connectable=0;fillColor=none;top=0;left=0;bottom=0;right=0;align=left;spacingLeft=6;overflow=hidden;" vertex="1" parent="9iY5AjlihuMi9OCF5Ucr-52">
          <mxGeometry x="40" width="140" height="30" as="geometry" />
        </mxCell>
        <mxCell id="9iY5AjlihuMi9OCF5Ucr-55" value="" style="shape=partialRectangle;html=1;whiteSpace=wrap;collapsible=0;dropTarget=0;pointerEvents=0;fillColor=none;top=0;left=0;bottom=0;right=0;points=[[0,0.5],[1,0.5]];portConstraint=eastwest;" vertex="1" parent="9iY5AjlihuMi9OCF5Ucr-51">
          <mxGeometry y="60" width="180" height="30" as="geometry" />
        </mxCell>
        <mxCell id="9iY5AjlihuMi9OCF5Ucr-56" value="2" style="shape=partialRectangle;html=1;whiteSpace=wrap;connectable=0;fillColor=none;top=0;left=0;bottom=0;right=0;overflow=hidden;" vertex="1" parent="9iY5AjlihuMi9OCF5Ucr-55">
          <mxGeometry width="40" height="30" as="geometry" />
        </mxCell>
        <mxCell id="9iY5AjlihuMi9OCF5Ucr-57" value="Value 2" style="shape=partialRectangle;html=1;whiteSpace=wrap;connectable=0;fillColor=none;top=0;left=0;bottom=0;right=0;align=left;spacingLeft=6;overflow=hidden;" vertex="1" parent="9iY5AjlihuMi9OCF5Ucr-55">
          <mxGeometry x="40" width="140" height="30" as="geometry" />
        </mxCell>
        <mxCell id="9iY5AjlihuMi9OCF5Ucr-58" value="" style="shape=partialRectangle;html=1;whiteSpace=wrap;collapsible=0;dropTarget=0;pointerEvents=0;fillColor=none;top=0;left=0;bottom=0;right=0;points=[[0,0.5],[1,0.5]];portConstraint=eastwest;" vertex="1" parent="9iY5AjlihuMi9OCF5Ucr-51">
          <mxGeometry y="90" width="180" height="30" as="geometry" />
        </mxCell>
        <mxCell id="9iY5AjlihuMi9OCF5Ucr-59" value="3" style="shape=partialRectangle;html=1;whiteSpace=wrap;connectable=0;fillColor=none;top=0;left=0;bottom=0;right=0;overflow=hidden;" vertex="1" parent="9iY5AjlihuMi9OCF5Ucr-58">
          <mxGeometry width="40" height="30" as="geometry" />
        </mxCell>
        <mxCell id="9iY5AjlihuMi9OCF5Ucr-60" value="Value 3" style="shape=partialRectangle;html=1;whiteSpace=wrap;connectable=0;fillColor=none;top=0;left=0;bottom=0;right=0;align=left;spacingLeft=6;overflow=hidden;" vertex="1" parent="9iY5AjlihuMi9OCF5Ucr-58">
          <mxGeometry x="40" width="140" height="30" as="geometry" />
        </mxCell>
        <mxCell id="9iY5AjlihuMi9OCF5Ucr-99" value="" style="edgeStyle=orthogonalEdgeStyle;rounded=0;orthogonalLoop=1;jettySize=auto;html=1;" edge="1" parent="1" source="9iY5AjlihuMi9OCF5Ucr-64" target="9iY5AjlihuMi9OCF5Ucr-98">
          <mxGeometry relative="1" as="geometry" />
        </mxCell>
        <mxCell id="9iY5AjlihuMi9OCF5Ucr-64" value="&lt;font style=&quot;font-size: 12px&quot;&gt;Census tracts &lt;br&gt;new development&lt;br&gt;&lt;/font&gt;" style="shape=parallelogram;html=1;strokeWidth=2;perimeter=parallelogramPerimeter;whiteSpace=wrap;rounded=1;arcSize=12;size=0.23;strokeColor=#23445d;fillColor=#CADAE6;" vertex="1" parent="1">
          <mxGeometry x="883" y="994" width="140" height="70" as="geometry" />
        </mxCell>
        <mxCell id="9iY5AjlihuMi9OCF5Ucr-66" value="" style="edgeStyle=orthogonalEdgeStyle;rounded=0;orthogonalLoop=1;jettySize=auto;html=1;" edge="1" parent="1" source="9iY5AjlihuMi9OCF5Ucr-65" target="9iY5AjlihuMi9OCF5Ucr-64">
          <mxGeometry relative="1" as="geometry" />
        </mxCell>
        <mxCell id="9iY5AjlihuMi9OCF5Ucr-65" value="Find census tracts with no recorded population but detected gross floor area" style="rounded=1;whiteSpace=wrap;html=1;absoluteArcSize=1;arcSize=14;strokeWidth=2;fontSize=10;fillColor=#ffe6cc;strokeColor=#d79b00;" vertex="1" parent="1">
          <mxGeometry x="751.5" y="979" width="100" height="100" as="geometry" />
        </mxCell>
        <mxCell id="9iY5AjlihuMi9OCF5Ucr-69" value="Dysymmetric MappingStep 1" style="text;html=1;strokeColor=none;fillColor=none;align=center;verticalAlign=middle;whiteSpace=wrap;rounded=0;" vertex="1" parent="1">
          <mxGeometry x="50" y="220" width="220" height="20" as="geometry" />
        </mxCell>
        <mxCell id="9iY5AjlihuMi9OCF5Ucr-91" value="" style="edgeStyle=orthogonalEdgeStyle;rounded=0;orthogonalLoop=1;jettySize=auto;html=1;" edge="1" parent="1" source="9iY5AjlihuMi9OCF5Ucr-70" target="9iY5AjlihuMi9OCF5Ucr-72">
          <mxGeometry relative="1" as="geometry" />
        </mxCell>
        <mxCell id="9iY5AjlihuMi9OCF5Ucr-70" value="&lt;font&gt;&lt;font style=&quot;font-size: 12px&quot;&gt;Census tracts&lt;/font&gt;&lt;br&gt;&lt;/font&gt;" style="shape=parallelogram;html=1;strokeWidth=2;perimeter=parallelogramPerimeter;whiteSpace=wrap;rounded=1;arcSize=12;size=0.23;strokeColor=#23445d;fillColor=#CADAE6;" vertex="1" parent="1">
          <mxGeometry x="121.5" y="1160" width="140" height="70" as="geometry" />
        </mxCell>
        <mxCell id="9iY5AjlihuMi9OCF5Ucr-92" value="" style="edgeStyle=orthogonalEdgeStyle;rounded=0;orthogonalLoop=1;jettySize=auto;html=1;" edge="1" parent="1" source="9iY5AjlihuMi9OCF5Ucr-71" target="9iY5AjlihuMi9OCF5Ucr-75">
          <mxGeometry relative="1" as="geometry" />
        </mxCell>
        <mxCell id="9iY5AjlihuMi9OCF5Ucr-71" value="&lt;font&gt;&lt;font style=&quot;font-size: 12px&quot;&gt;Study Area&lt;/font&gt;&lt;br&gt;&lt;/font&gt;" style="shape=parallelogram;html=1;strokeWidth=2;perimeter=parallelogramPerimeter;whiteSpace=wrap;rounded=1;arcSize=12;size=0.23;strokeColor=#23445d;fillColor=#CADAE6;" vertex="1" parent="1">
          <mxGeometry x="284.5" y="1160" width="140" height="70" as="geometry" />
        </mxCell>
        <mxCell id="9iY5AjlihuMi9OCF5Ucr-77" value="" style="edgeStyle=orthogonalEdgeStyle;rounded=0;orthogonalLoop=1;jettySize=auto;html=1;" edge="1" parent="1" source="9iY5AjlihuMi9OCF5Ucr-72" target="9iY5AjlihuMi9OCF5Ucr-75">
          <mxGeometry relative="1" as="geometry" />
        </mxCell>
        <mxCell id="9iY5AjlihuMi9OCF5Ucr-72" value="Compute population for census tracts with new development using residential gross floor area" style="rounded=1;whiteSpace=wrap;html=1;absoluteArcSize=1;arcSize=14;strokeWidth=2;fontSize=10;fillColor=#ffe6cc;strokeColor=#d79b00;" vertex="1" parent="1">
          <mxGeometry x="141.5" y="1295" width="100" height="100" as="geometry" />
        </mxCell>
        <mxCell id="9iY5AjlihuMi9OCF5Ucr-85" value="" style="edgeStyle=orthogonalEdgeStyle;rounded=0;orthogonalLoop=1;jettySize=auto;html=1;" edge="1" parent="1" source="9iY5AjlihuMi9OCF5Ucr-75" target="9iY5AjlihuMi9OCF5Ucr-80">
          <mxGeometry relative="1" as="geometry" />
        </mxCell>
        <mxCell id="9iY5AjlihuMi9OCF5Ucr-75" value="Check sum of assigned population and population growth per district in study area" style="rounded=1;whiteSpace=wrap;html=1;absoluteArcSize=1;arcSize=14;strokeWidth=2;fontSize=10;fillColor=#ffe6cc;strokeColor=#d79b00;" vertex="1" parent="1">
          <mxGeometry x="304.5" y="1295" width="100" height="100" as="geometry" />
        </mxCell>
        <mxCell id="9iY5AjlihuMi9OCF5Ucr-88" style="edgeStyle=orthogonalEdgeStyle;rounded=0;orthogonalLoop=1;jettySize=auto;html=1;entryX=0;entryY=0.5;entryDx=0;entryDy=0;" edge="1" parent="1" source="9iY5AjlihuMi9OCF5Ucr-80" target="9iY5AjlihuMi9OCF5Ucr-82">
          <mxGeometry relative="1" as="geometry" />
        </mxCell>
        <mxCell id="9iY5AjlihuMi9OCF5Ucr-89" style="edgeStyle=orthogonalEdgeStyle;rounded=0;orthogonalLoop=1;jettySize=auto;html=1;entryX=0;entryY=0.5;entryDx=0;entryDy=0;" edge="1" parent="1" source="9iY5AjlihuMi9OCF5Ucr-80" target="9iY5AjlihuMi9OCF5Ucr-86">
          <mxGeometry relative="1" as="geometry" />
        </mxCell>
        <mxCell id="9iY5AjlihuMi9OCF5Ucr-80" value="Sum assigned population &lt;br&gt;&amp;gt; &lt;br&gt;district growth" style="strokeWidth=2;html=1;shape=mxgraph.flowchart.decision;whiteSpace=wrap;rounded=1;fontSize=10;fillColor=#f8cecc;strokeColor=#b85450;" vertex="1" parent="1">
          <mxGeometry x="446" y="1273" width="143" height="144" as="geometry" />
        </mxCell>
        <mxCell id="9iY5AjlihuMi9OCF5Ucr-94" value="" style="edgeStyle=orthogonalEdgeStyle;rounded=0;orthogonalLoop=1;jettySize=auto;html=1;" edge="1" parent="1" source="9iY5AjlihuMi9OCF5Ucr-82" target="9iY5AjlihuMi9OCF5Ucr-87">
          <mxGeometry relative="1" as="geometry" />
        </mxCell>
        <mxCell id="9iY5AjlihuMi9OCF5Ucr-82" value="Reduce population of census tracts with new development" style="rounded=1;whiteSpace=wrap;html=1;absoluteArcSize=1;arcSize=14;strokeWidth=2;fontSize=10;fillColor=#ffe6cc;strokeColor=#d79b00;" vertex="1" parent="1">
          <mxGeometry x="650" y="1181" width="100" height="100" as="geometry" />
        </mxCell>
        <mxCell id="9iY5AjlihuMi9OCF5Ucr-84" value="" style="edgeStyle=orthogonalEdgeStyle;rounded=0;orthogonalLoop=1;jettySize=auto;html=1;" edge="1" parent="1" source="9iY5AjlihuMi9OCF5Ucr-83" target="9iY5AjlihuMi9OCF5Ucr-72">
          <mxGeometry relative="1" as="geometry" />
        </mxCell>
        <mxCell id="9iY5AjlihuMi9OCF5Ucr-83" value="&lt;font style=&quot;font-size: 10px&quot;&gt;Start&lt;/font&gt;" style="rounded=1;whiteSpace=wrap;html=1;strokeWidth=2;fontSize=10;" vertex="1" parent="1">
          <mxGeometry x="-30" y="1315" width="120" height="60" as="geometry" />
        </mxCell>
        <mxCell id="9iY5AjlihuMi9OCF5Ucr-95" value="" style="edgeStyle=orthogonalEdgeStyle;rounded=0;orthogonalLoop=1;jettySize=auto;html=1;" edge="1" parent="1" source="9iY5AjlihuMi9OCF5Ucr-86" target="9iY5AjlihuMi9OCF5Ucr-87">
          <mxGeometry relative="1" as="geometry" />
        </mxCell>
        <mxCell id="9iY5AjlihuMi9OCF5Ucr-86" value="Distribute remaining population to rest of census tracts in district" style="rounded=1;whiteSpace=wrap;html=1;absoluteArcSize=1;arcSize=14;strokeWidth=2;fontSize=10;fillColor=#ffe6cc;strokeColor=#d79b00;" vertex="1" parent="1">
          <mxGeometry x="650" y="1401" width="100" height="100" as="geometry" />
        </mxCell>
        <mxCell id="9iY5AjlihuMi9OCF5Ucr-97" value="" style="edgeStyle=orthogonalEdgeStyle;rounded=0;orthogonalLoop=1;jettySize=auto;html=1;" edge="1" parent="1" source="9iY5AjlihuMi9OCF5Ucr-87" target="9iY5AjlihuMi9OCF5Ucr-96">
          <mxGeometry relative="1" as="geometry" />
        </mxCell>
        <mxCell id="9iY5AjlihuMi9OCF5Ucr-87" value="&lt;font&gt;&lt;font style=&quot;font-size: 12px&quot;&gt;Updated census &lt;br&gt;tracts&lt;/font&gt;&lt;br&gt;&lt;/font&gt;" style="shape=parallelogram;html=1;strokeWidth=2;perimeter=parallelogramPerimeter;whiteSpace=wrap;rounded=1;arcSize=12;size=0.23;strokeColor=#23445d;fillColor=#CADAE6;" vertex="1" parent="1">
          <mxGeometry x="850" y="1305" width="137" height="70" as="geometry" />
        </mxCell>
        <mxCell id="9iY5AjlihuMi9OCF5Ucr-96" value="&lt;font style=&quot;font-size: 10px&quot;&gt;End&lt;/font&gt;" style="rounded=1;whiteSpace=wrap;html=1;strokeWidth=2;fontSize=10;" vertex="1" parent="1">
          <mxGeometry x="1040" y="1310" width="120" height="60" as="geometry" />
        </mxCell>
        <mxCell id="9iY5AjlihuMi9OCF5Ucr-98" value="&lt;font style=&quot;font-size: 10px&quot;&gt;End&lt;/font&gt;" style="rounded=1;whiteSpace=wrap;html=1;strokeWidth=2;fontSize=10;" vertex="1" parent="1">
          <mxGeometry x="1050" y="999" width="120" height="60" as="geometry" />
        </mxCell>
        <mxCell id="9iY5AjlihuMi9OCF5Ucr-111" value="" style="shape=partialRectangle;html=1;whiteSpace=wrap;connectable=0;fillColor=none;top=0;left=0;bottom=0;right=0;overflow=hidden;" vertex="1" parent="1">
          <mxGeometry x="1260" y="790" width="50" height="30" as="geometry" />
        </mxCell>
        <mxCell id="9iY5AjlihuMi9OCF5Ucr-112" value="roof_levels&amp;nbsp;&lt;span style=&quot;white-space: pre&quot;&gt;	&lt;span style=&quot;white-space: pre&quot;&gt;	&lt;/span&gt;&lt;/span&gt;smallint" style="shape=partialRectangle;html=1;whiteSpace=wrap;connectable=0;fillColor=none;top=0;left=0;bottom=0;right=0;align=left;spacingLeft=6;overflow=hidden;" vertex="1" parent="1">
          <mxGeometry x="1310" y="790" width="170" height="30" as="geometry" />
        </mxCell>
        <mxCell id="9iY5AjlihuMi9OCF5Ucr-113" value="Buildings OSM" style="shape=table;startSize=30;container=1;collapsible=1;childLayout=tableLayout;fixedRows=1;rowLines=0;fontStyle=1;align=center;resizeLast=1;" vertex="1" parent="1">
          <mxGeometry x="1530" y="580" width="240" height="340" as="geometry">
            <mxRectangle x="1530" y="580" width="60" height="30" as="alternateBounds" />
          </mxGeometry>
        </mxCell>
        <mxCell id="9iY5AjlihuMi9OCF5Ucr-114" value="" style="shape=partialRectangle;collapsible=0;dropTarget=0;pointerEvents=0;fillColor=none;top=0;left=0;bottom=1;right=0;points=[[0,0.5],[1,0.5]];portConstraint=eastwest;" vertex="1" parent="9iY5AjlihuMi9OCF5Ucr-113">
          <mxGeometry y="30" width="240" height="30" as="geometry" />
        </mxCell>
        <mxCell id="9iY5AjlihuMi9OCF5Ucr-115" value="PK" style="shape=partialRectangle;connectable=0;fillColor=none;top=0;left=0;bottom=0;right=0;fontStyle=1;overflow=hidden;" vertex="1" parent="9iY5AjlihuMi9OCF5Ucr-114">
          <mxGeometry width="50" height="30" as="geometry" />
        </mxCell>
        <mxCell id="9iY5AjlihuMi9OCF5Ucr-116" value="gid                            int4" style="shape=partialRectangle;connectable=0;fillColor=none;top=0;left=0;bottom=0;right=0;align=left;spacingLeft=6;fontStyle=1;overflow=hidden;" vertex="1" parent="9iY5AjlihuMi9OCF5Ucr-114">
          <mxGeometry x="50" width="190" height="30" as="geometry" />
        </mxCell>
        <mxCell id="9iY5AjlihuMi9OCF5Ucr-117" value="" style="shape=partialRectangle;collapsible=0;dropTarget=0;pointerEvents=0;fillColor=none;top=0;left=0;bottom=0;right=0;points=[[0,0.5],[1,0.5]];portConstraint=eastwest;" vertex="1" parent="9iY5AjlihuMi9OCF5Ucr-113">
          <mxGeometry y="60" width="240" height="30" as="geometry" />
        </mxCell>
        <mxCell id="9iY5AjlihuMi9OCF5Ucr-118" value="not null" style="shape=partialRectangle;connectable=0;fillColor=none;top=0;left=0;bottom=0;right=0;editable=1;overflow=hidden;" vertex="1" parent="9iY5AjlihuMi9OCF5Ucr-117">
          <mxGeometry width="50" height="30" as="geometry" />
        </mxCell>
        <mxCell id="9iY5AjlihuMi9OCF5Ucr-119" value="osm_id                      int8" style="shape=partialRectangle;connectable=0;fillColor=none;top=0;left=0;bottom=0;right=0;align=left;spacingLeft=6;overflow=hidden;" vertex="1" parent="9iY5AjlihuMi9OCF5Ucr-117">
          <mxGeometry x="50" width="190" height="30" as="geometry" />
        </mxCell>
        <mxCell id="9iY5AjlihuMi9OCF5Ucr-120" value="" style="shape=partialRectangle;collapsible=0;dropTarget=0;pointerEvents=0;fillColor=none;top=0;left=0;bottom=0;right=0;points=[[0,0.5],[1,0.5]];portConstraint=eastwest;" vertex="1" parent="9iY5AjlihuMi9OCF5Ucr-113">
          <mxGeometry y="90" width="240" height="30" as="geometry" />
        </mxCell>
        <mxCell id="9iY5AjlihuMi9OCF5Ucr-121" value="not null" style="shape=partialRectangle;connectable=0;fillColor=none;top=0;left=0;bottom=0;right=0;editable=1;overflow=hidden;" vertex="1" parent="9iY5AjlihuMi9OCF5Ucr-120">
          <mxGeometry width="50" height="30" as="geometry" />
        </mxCell>
        <mxCell id="9iY5AjlihuMi9OCF5Ucr-122" value="building                     text" style="shape=partialRectangle;connectable=0;fillColor=none;top=0;left=0;bottom=0;right=0;align=left;spacingLeft=6;overflow=hidden;" vertex="1" parent="9iY5AjlihuMi9OCF5Ucr-120">
          <mxGeometry x="50" width="190" height="30" as="geometry" />
        </mxCell>
        <mxCell id="9iY5AjlihuMi9OCF5Ucr-123" value="" style="shape=partialRectangle;collapsible=0;dropTarget=0;pointerEvents=0;fillColor=none;top=0;left=0;bottom=0;right=0;points=[[0,0.5],[1,0.5]];portConstraint=eastwest;" vertex="1" parent="9iY5AjlihuMi9OCF5Ucr-113">
          <mxGeometry y="120" width="240" height="30" as="geometry" />
        </mxCell>
        <mxCell id="9iY5AjlihuMi9OCF5Ucr-124" value="" style="shape=partialRectangle;connectable=0;fillColor=none;top=0;left=0;bottom=0;right=0;editable=1;overflow=hidden;" vertex="1" parent="9iY5AjlihuMi9OCF5Ucr-123">
          <mxGeometry width="50" height="30" as="geometry" />
        </mxCell>
        <mxCell id="9iY5AjlihuMi9OCF5Ucr-125" value="amenity                     text" style="shape=partialRectangle;connectable=0;fillColor=none;top=0;left=0;bottom=0;right=0;align=left;spacingLeft=6;overflow=hidden;" vertex="1" parent="9iY5AjlihuMi9OCF5Ucr-123">
          <mxGeometry x="50" width="190" height="30" as="geometry" />
        </mxCell>
        <mxCell id="9iY5AjlihuMi9OCF5Ucr-135" style="shape=partialRectangle;collapsible=0;dropTarget=0;pointerEvents=0;fillColor=none;top=0;left=0;bottom=0;right=0;points=[[0,0.5],[1,0.5]];portConstraint=eastwest;" vertex="1" parent="9iY5AjlihuMi9OCF5Ucr-113">
          <mxGeometry y="150" width="240" height="30" as="geometry" />
        </mxCell>
        <mxCell id="9iY5AjlihuMi9OCF5Ucr-136" style="shape=partialRectangle;connectable=0;fillColor=none;top=0;left=0;bottom=0;right=0;editable=1;overflow=hidden;" vertex="1" parent="9iY5AjlihuMi9OCF5Ucr-135">
          <mxGeometry width="50" height="30" as="geometry" />
        </mxCell>
        <mxCell id="9iY5AjlihuMi9OCF5Ucr-137" value="building_levels          int2" style="shape=partialRectangle;connectable=0;fillColor=none;top=0;left=0;bottom=0;right=0;align=left;spacingLeft=6;overflow=hidden;" vertex="1" parent="9iY5AjlihuMi9OCF5Ucr-135">
          <mxGeometry x="50" width="190" height="30" as="geometry" />
        </mxCell>
        <mxCell id="9iY5AjlihuMi9OCF5Ucr-138" style="shape=partialRectangle;collapsible=0;dropTarget=0;pointerEvents=0;fillColor=none;top=0;left=0;bottom=0;right=0;points=[[0,0.5],[1,0.5]];portConstraint=eastwest;" vertex="1" parent="9iY5AjlihuMi9OCF5Ucr-113">
          <mxGeometry y="180" width="240" height="30" as="geometry" />
        </mxCell>
        <mxCell id="9iY5AjlihuMi9OCF5Ucr-139" style="shape=partialRectangle;connectable=0;fillColor=none;top=0;left=0;bottom=0;right=0;editable=1;overflow=hidden;" vertex="1" parent="9iY5AjlihuMi9OCF5Ucr-138">
          <mxGeometry width="50" height="30" as="geometry" />
        </mxCell>
        <mxCell id="9iY5AjlihuMi9OCF5Ucr-140" value="roof_levels                int2" style="shape=partialRectangle;connectable=0;fillColor=none;top=0;left=0;bottom=0;right=0;align=left;spacingLeft=6;overflow=hidden;" vertex="1" parent="9iY5AjlihuMi9OCF5Ucr-138">
          <mxGeometry x="50" width="190" height="30" as="geometry" />
        </mxCell>
        <mxCell id="9iY5AjlihuMi9OCF5Ucr-147" style="shape=partialRectangle;collapsible=0;dropTarget=0;pointerEvents=0;fillColor=none;top=0;left=0;bottom=0;right=0;points=[[0,0.5],[1,0.5]];portConstraint=eastwest;" vertex="1" parent="9iY5AjlihuMi9OCF5Ucr-113">
          <mxGeometry y="210" width="240" height="30" as="geometry" />
        </mxCell>
        <mxCell id="9iY5AjlihuMi9OCF5Ucr-148" style="shape=partialRectangle;connectable=0;fillColor=none;top=0;left=0;bottom=0;right=0;editable=1;overflow=hidden;" vertex="1" parent="9iY5AjlihuMi9OCF5Ucr-147">
          <mxGeometry width="50" height="30" as="geometry" />
        </mxCell>
        <mxCell id="9iY5AjlihuMi9OCF5Ucr-149" value="street                        text" style="shape=partialRectangle;connectable=0;fillColor=none;top=0;left=0;bottom=0;right=0;align=left;spacingLeft=6;overflow=hidden;" vertex="1" parent="9iY5AjlihuMi9OCF5Ucr-147">
          <mxGeometry x="50" width="190" height="30" as="geometry" />
        </mxCell>
        <mxCell id="9iY5AjlihuMi9OCF5Ucr-150" style="shape=partialRectangle;collapsible=0;dropTarget=0;pointerEvents=0;fillColor=none;top=0;left=0;bottom=0;right=0;points=[[0,0.5],[1,0.5]];portConstraint=eastwest;" vertex="1" parent="9iY5AjlihuMi9OCF5Ucr-113">
          <mxGeometry y="240" width="240" height="30" as="geometry" />
        </mxCell>
        <mxCell id="9iY5AjlihuMi9OCF5Ucr-151" style="shape=partialRectangle;connectable=0;fillColor=none;top=0;left=0;bottom=0;right=0;editable=1;overflow=hidden;" vertex="1" parent="9iY5AjlihuMi9OCF5Ucr-150">
          <mxGeometry width="50" height="30" as="geometry" />
        </mxCell>
        <mxCell id="9iY5AjlihuMi9OCF5Ucr-152" value="housenumber           text" style="shape=partialRectangle;connectable=0;fillColor=none;top=0;left=0;bottom=0;right=0;align=left;spacingLeft=6;overflow=hidden;" vertex="1" parent="9iY5AjlihuMi9OCF5Ucr-150">
          <mxGeometry x="50" width="190" height="30" as="geometry" />
        </mxCell>
        <mxCell id="9iY5AjlihuMi9OCF5Ucr-153" style="shape=partialRectangle;collapsible=0;dropTarget=0;pointerEvents=0;fillColor=none;top=0;left=0;bottom=0;right=0;points=[[0,0.5],[1,0.5]];portConstraint=eastwest;" vertex="1" parent="9iY5AjlihuMi9OCF5Ucr-113">
          <mxGeometry y="270" width="240" height="30" as="geometry" />
        </mxCell>
        <mxCell id="9iY5AjlihuMi9OCF5Ucr-154" value="not null" style="shape=partialRectangle;connectable=0;fillColor=none;top=0;left=0;bottom=0;right=0;editable=1;overflow=hidden;" vertex="1" parent="9iY5AjlihuMi9OCF5Ucr-153">
          <mxGeometry width="50" height="30" as="geometry" />
        </mxCell>
        <mxCell id="9iY5AjlihuMi9OCF5Ucr-155" value="area                          int4" style="shape=partialRectangle;connectable=0;fillColor=none;top=0;left=0;bottom=0;right=0;align=left;spacingLeft=6;overflow=hidden;" vertex="1" parent="9iY5AjlihuMi9OCF5Ucr-153">
          <mxGeometry x="50" width="190" height="30" as="geometry" />
        </mxCell>
        <mxCell id="9iY5AjlihuMi9OCF5Ucr-141" style="shape=partialRectangle;collapsible=0;dropTarget=0;pointerEvents=0;fillColor=none;top=0;left=0;bottom=0;right=0;points=[[0,0.5],[1,0.5]];portConstraint=eastwest;" vertex="1" parent="9iY5AjlihuMi9OCF5Ucr-113">
          <mxGeometry y="300" width="240" height="30" as="geometry" />
        </mxCell>
        <mxCell id="9iY5AjlihuMi9OCF5Ucr-142" value="not null" style="shape=partialRectangle;connectable=0;fillColor=none;top=0;left=0;bottom=0;right=0;editable=1;overflow=hidden;" vertex="1" parent="9iY5AjlihuMi9OCF5Ucr-141">
          <mxGeometry width="50" height="30" as="geometry" />
        </mxCell>
        <mxCell id="9iY5AjlihuMi9OCF5Ucr-143" value="geom                        geometry" style="shape=partialRectangle;connectable=0;fillColor=none;top=0;left=0;bottom=0;right=0;align=left;spacingLeft=6;overflow=hidden;" vertex="1" parent="9iY5AjlihuMi9OCF5Ucr-141">
          <mxGeometry x="50" width="190" height="30" as="geometry" />
        </mxCell>
        <mxCell id="9iY5AjlihuMi9OCF5Ucr-156" value="Buldings Custom" style="shape=table;startSize=30;container=1;collapsible=1;childLayout=tableLayout;fixedRows=1;rowLines=0;fontStyle=1;align=center;resizeLast=1;" vertex="1" parent="1">
          <mxGeometry x="1810" y="580" width="240" height="340" as="geometry">
            <mxRectangle x="1530" y="580" width="60" height="30" as="alternateBounds" />
          </mxGeometry>
        </mxCell>
        <mxCell id="9iY5AjlihuMi9OCF5Ucr-157" value="" style="shape=partialRectangle;collapsible=0;dropTarget=0;pointerEvents=0;fillColor=none;top=0;left=0;bottom=1;right=0;points=[[0,0.5],[1,0.5]];portConstraint=eastwest;" vertex="1" parent="9iY5AjlihuMi9OCF5Ucr-156">
          <mxGeometry y="30" width="240" height="30" as="geometry" />
        </mxCell>
        <mxCell id="9iY5AjlihuMi9OCF5Ucr-158" value="PK" style="shape=partialRectangle;connectable=0;fillColor=none;top=0;left=0;bottom=0;right=0;fontStyle=1;overflow=hidden;" vertex="1" parent="9iY5AjlihuMi9OCF5Ucr-157">
          <mxGeometry width="50" height="30" as="geometry" />
        </mxCell>
        <mxCell id="9iY5AjlihuMi9OCF5Ucr-159" value="gid                            int4" style="shape=partialRectangle;connectable=0;fillColor=none;top=0;left=0;bottom=0;right=0;align=left;spacingLeft=6;fontStyle=1;overflow=hidden;" vertex="1" parent="9iY5AjlihuMi9OCF5Ucr-157">
          <mxGeometry x="50" width="190" height="30" as="geometry" />
        </mxCell>
        <mxCell id="9iY5AjlihuMi9OCF5Ucr-160" value="" style="shape=partialRectangle;collapsible=0;dropTarget=0;pointerEvents=0;fillColor=none;top=0;left=0;bottom=0;right=0;points=[[0,0.5],[1,0.5]];portConstraint=eastwest;" vertex="1" parent="9iY5AjlihuMi9OCF5Ucr-156">
          <mxGeometry y="60" width="240" height="30" as="geometry" />
        </mxCell>
        <mxCell id="9iY5AjlihuMi9OCF5Ucr-161" value="not null" style="shape=partialRectangle;connectable=0;fillColor=none;top=0;left=0;bottom=0;right=0;editable=1;overflow=hidden;" vertex="1" parent="9iY5AjlihuMi9OCF5Ucr-160">
          <mxGeometry width="50" height="30" as="geometry" />
        </mxCell>
        <mxCell id="9iY5AjlihuMi9OCF5Ucr-162" value="osm_id                      int8" style="shape=partialRectangle;connectable=0;fillColor=none;top=0;left=0;bottom=0;right=0;align=left;spacingLeft=6;overflow=hidden;" vertex="1" parent="9iY5AjlihuMi9OCF5Ucr-160">
          <mxGeometry x="50" width="190" height="30" as="geometry" />
        </mxCell>
        <mxCell id="9iY5AjlihuMi9OCF5Ucr-163" value="" style="shape=partialRectangle;collapsible=0;dropTarget=0;pointerEvents=0;fillColor=none;top=0;left=0;bottom=0;right=0;points=[[0,0.5],[1,0.5]];portConstraint=eastwest;" vertex="1" parent="9iY5AjlihuMi9OCF5Ucr-156">
          <mxGeometry y="90" width="240" height="30" as="geometry" />
        </mxCell>
        <mxCell id="9iY5AjlihuMi9OCF5Ucr-164" value="not null" style="shape=partialRectangle;connectable=0;fillColor=none;top=0;left=0;bottom=0;right=0;editable=1;overflow=hidden;" vertex="1" parent="9iY5AjlihuMi9OCF5Ucr-163">
          <mxGeometry width="50" height="30" as="geometry" />
        </mxCell>
        <mxCell id="9iY5AjlihuMi9OCF5Ucr-165" value="building                     text" style="shape=partialRectangle;connectable=0;fillColor=none;top=0;left=0;bottom=0;right=0;align=left;spacingLeft=6;overflow=hidden;" vertex="1" parent="9iY5AjlihuMi9OCF5Ucr-163">
          <mxGeometry x="50" width="190" height="30" as="geometry" />
        </mxCell>
        <mxCell id="9iY5AjlihuMi9OCF5Ucr-166" value="" style="shape=partialRectangle;collapsible=0;dropTarget=0;pointerEvents=0;fillColor=none;top=0;left=0;bottom=0;right=0;points=[[0,0.5],[1,0.5]];portConstraint=eastwest;" vertex="1" parent="9iY5AjlihuMi9OCF5Ucr-156">
          <mxGeometry y="120" width="240" height="30" as="geometry" />
        </mxCell>
        <mxCell id="9iY5AjlihuMi9OCF5Ucr-167" value="" style="shape=partialRectangle;connectable=0;fillColor=none;top=0;left=0;bottom=0;right=0;editable=1;overflow=hidden;" vertex="1" parent="9iY5AjlihuMi9OCF5Ucr-166">
          <mxGeometry width="50" height="30" as="geometry" />
        </mxCell>
        <mxCell id="9iY5AjlihuMi9OCF5Ucr-168" value="amenity                     text" style="shape=partialRectangle;connectable=0;fillColor=none;top=0;left=0;bottom=0;right=0;align=left;spacingLeft=6;overflow=hidden;" vertex="1" parent="9iY5AjlihuMi9OCF5Ucr-166">
          <mxGeometry x="50" width="190" height="30" as="geometry" />
        </mxCell>
        <mxCell id="9iY5AjlihuMi9OCF5Ucr-169" style="shape=partialRectangle;collapsible=0;dropTarget=0;pointerEvents=0;fillColor=none;top=0;left=0;bottom=0;right=0;points=[[0,0.5],[1,0.5]];portConstraint=eastwest;" vertex="1" parent="9iY5AjlihuMi9OCF5Ucr-156">
          <mxGeometry y="150" width="240" height="30" as="geometry" />
        </mxCell>
        <mxCell id="9iY5AjlihuMi9OCF5Ucr-170" style="shape=partialRectangle;connectable=0;fillColor=none;top=0;left=0;bottom=0;right=0;editable=1;overflow=hidden;" vertex="1" parent="9iY5AjlihuMi9OCF5Ucr-169">
          <mxGeometry width="50" height="30" as="geometry" />
        </mxCell>
        <mxCell id="9iY5AjlihuMi9OCF5Ucr-171" value="building_levels          int2" style="shape=partialRectangle;connectable=0;fillColor=none;top=0;left=0;bottom=0;right=0;align=left;spacingLeft=6;overflow=hidden;" vertex="1" parent="9iY5AjlihuMi9OCF5Ucr-169">
          <mxGeometry x="50" width="190" height="30" as="geometry" />
        </mxCell>
        <mxCell id="9iY5AjlihuMi9OCF5Ucr-172" style="shape=partialRectangle;collapsible=0;dropTarget=0;pointerEvents=0;fillColor=none;top=0;left=0;bottom=0;right=0;points=[[0,0.5],[1,0.5]];portConstraint=eastwest;" vertex="1" parent="9iY5AjlihuMi9OCF5Ucr-156">
          <mxGeometry y="180" width="240" height="30" as="geometry" />
        </mxCell>
        <mxCell id="9iY5AjlihuMi9OCF5Ucr-173" style="shape=partialRectangle;connectable=0;fillColor=none;top=0;left=0;bottom=0;right=0;editable=1;overflow=hidden;" vertex="1" parent="9iY5AjlihuMi9OCF5Ucr-172">
          <mxGeometry width="50" height="30" as="geometry" />
        </mxCell>
        <mxCell id="9iY5AjlihuMi9OCF5Ucr-174" value="roof_levels                int2" style="shape=partialRectangle;connectable=0;fillColor=none;top=0;left=0;bottom=0;right=0;align=left;spacingLeft=6;overflow=hidden;" vertex="1" parent="9iY5AjlihuMi9OCF5Ucr-172">
          <mxGeometry x="50" width="190" height="30" as="geometry" />
        </mxCell>
        <mxCell id="9iY5AjlihuMi9OCF5Ucr-175" style="shape=partialRectangle;collapsible=0;dropTarget=0;pointerEvents=0;fillColor=none;top=0;left=0;bottom=0;right=0;points=[[0,0.5],[1,0.5]];portConstraint=eastwest;" vertex="1" parent="9iY5AjlihuMi9OCF5Ucr-156">
          <mxGeometry y="210" width="240" height="30" as="geometry" />
        </mxCell>
        <mxCell id="9iY5AjlihuMi9OCF5Ucr-176" style="shape=partialRectangle;connectable=0;fillColor=none;top=0;left=0;bottom=0;right=0;editable=1;overflow=hidden;" vertex="1" parent="9iY5AjlihuMi9OCF5Ucr-175">
          <mxGeometry width="50" height="30" as="geometry" />
        </mxCell>
        <mxCell id="9iY5AjlihuMi9OCF5Ucr-177" value="street                        text" style="shape=partialRectangle;connectable=0;fillColor=none;top=0;left=0;bottom=0;right=0;align=left;spacingLeft=6;overflow=hidden;" vertex="1" parent="9iY5AjlihuMi9OCF5Ucr-175">
          <mxGeometry x="50" width="190" height="30" as="geometry" />
        </mxCell>
        <mxCell id="9iY5AjlihuMi9OCF5Ucr-178" style="shape=partialRectangle;collapsible=0;dropTarget=0;pointerEvents=0;fillColor=none;top=0;left=0;bottom=0;right=0;points=[[0,0.5],[1,0.5]];portConstraint=eastwest;" vertex="1" parent="9iY5AjlihuMi9OCF5Ucr-156">
          <mxGeometry y="240" width="240" height="30" as="geometry" />
        </mxCell>
        <mxCell id="9iY5AjlihuMi9OCF5Ucr-179" style="shape=partialRectangle;connectable=0;fillColor=none;top=0;left=0;bottom=0;right=0;editable=1;overflow=hidden;" vertex="1" parent="9iY5AjlihuMi9OCF5Ucr-178">
          <mxGeometry width="50" height="30" as="geometry" />
        </mxCell>
        <mxCell id="9iY5AjlihuMi9OCF5Ucr-180" value="housenumber           text" style="shape=partialRectangle;connectable=0;fillColor=none;top=0;left=0;bottom=0;right=0;align=left;spacingLeft=6;overflow=hidden;" vertex="1" parent="9iY5AjlihuMi9OCF5Ucr-178">
          <mxGeometry x="50" width="190" height="30" as="geometry" />
        </mxCell>
        <mxCell id="9iY5AjlihuMi9OCF5Ucr-181" style="shape=partialRectangle;collapsible=0;dropTarget=0;pointerEvents=0;fillColor=none;top=0;left=0;bottom=0;right=0;points=[[0,0.5],[1,0.5]];portConstraint=eastwest;" vertex="1" parent="9iY5AjlihuMi9OCF5Ucr-156">
          <mxGeometry y="270" width="240" height="30" as="geometry" />
        </mxCell>
        <mxCell id="9iY5AjlihuMi9OCF5Ucr-182" value="not null" style="shape=partialRectangle;connectable=0;fillColor=none;top=0;left=0;bottom=0;right=0;editable=1;overflow=hidden;" vertex="1" parent="9iY5AjlihuMi9OCF5Ucr-181">
          <mxGeometry width="50" height="30" as="geometry" />
        </mxCell>
        <mxCell id="9iY5AjlihuMi9OCF5Ucr-183" value="area                          int4" style="shape=partialRectangle;connectable=0;fillColor=none;top=0;left=0;bottom=0;right=0;align=left;spacingLeft=6;overflow=hidden;" vertex="1" parent="9iY5AjlihuMi9OCF5Ucr-181">
          <mxGeometry x="50" width="190" height="30" as="geometry" />
        </mxCell>
        <mxCell id="9iY5AjlihuMi9OCF5Ucr-184" style="shape=partialRectangle;collapsible=0;dropTarget=0;pointerEvents=0;fillColor=none;top=0;left=0;bottom=0;right=0;points=[[0,0.5],[1,0.5]];portConstraint=eastwest;" vertex="1" parent="9iY5AjlihuMi9OCF5Ucr-156">
          <mxGeometry y="300" width="240" height="30" as="geometry" />
        </mxCell>
        <mxCell id="9iY5AjlihuMi9OCF5Ucr-185" value="not null" style="shape=partialRectangle;connectable=0;fillColor=none;top=0;left=0;bottom=0;right=0;editable=1;overflow=hidden;" vertex="1" parent="9iY5AjlihuMi9OCF5Ucr-184">
          <mxGeometry width="50" height="30" as="geometry" />
        </mxCell>
        <mxCell id="9iY5AjlihuMi9OCF5Ucr-186" value="geom                        geometry" style="shape=partialRectangle;connectable=0;fillColor=none;top=0;left=0;bottom=0;right=0;align=left;spacingLeft=6;overflow=hidden;" vertex="1" parent="9iY5AjlihuMi9OCF5Ucr-184">
          <mxGeometry x="50" width="190" height="30" as="geometry" />
        </mxCell>
      </root>
    </mxGraphModel>
  </diagram>
  <diagram id="BOBpf2U_QfTcUxQcKfzV" name="Page-2">
    <mxGraphModel dx="1351" dy="746" grid="1" gridSize="10" guides="1" tooltips="1" connect="1" arrows="1" fold="1" page="1" pageScale="1" pageWidth="827" pageHeight="1169" math="0" shadow="0">
      <root>
        <mxCell id="PkByrm8Jt6GQ5gedISDO-0" />
        <mxCell id="PkByrm8Jt6GQ5gedISDO-1" parent="PkByrm8Jt6GQ5gedISDO-0" />
      </root>
    </mxGraphModel>
  </diagram>
</mxfile>
